<?xml version="1.0" encoding="UTF-8"?>
<svg width="36px" height="63px" viewBox="0 0 36 63" version="1.1" xmlns="http://www.w3.org/2000/svg" xmlns:xlink="http://www.w3.org/1999/xlink">
    <!-- Generator: Sketch 45.1 (43504) - http://www.bohemiancoding.com/sketch -->
    <title>Alfie</title>
    <desc>Created with Sketch.</desc>
    <defs></defs>
    <g id="Page-1" stroke="none" stroke-width="1" fill="none" fill-rule="evenodd">
        <g id="Desktop-—-7Tennis" transform="translate(-1040.000000, -397.000000)">
            <g id="Alfie" transform="translate(1040.000000, 397.000000)">
                <g id="Group-39" transform="translate(0.000000, 0.244338)">
                    <path d="M9.14856574,39.5617125 C8.20254045,39.6196644 5.90795925,40.6753284 4.95057853,42.9139155 C4.10518589,44.8901529 6.28777901,47.2019631 8.30082371,47.9545544 C14.460952,50.2589248 15.7938452,55.6973955 15.2295975,59.3655929 C15.1101696,60.1444191 14.8117958,61.1840289 14.0267044,61.2529446 C12.7650763,61.3629749 12.5575459,60.9772816 12.1859491,60.3374616 C11.8139607,59.698033 11.3252854,54.0951043 10.3851336,52.9998921 C8.53967943,50.8501906 8.90892689,51.3764563 6.31205615,50.2448284 C3.71479384,49.113592 1.03138684,47.1538004 0.81289259,44.3290378 C0.656265887,42.3022882 1.89714094,40.3511111 3.57657077,39.2053867 C5.2560006,38.0596624 7.31133451,37.6038787 9.33299369,37.3904748" id="Fill-1" fill="#C07429"></path>
                    <path d="M8.99362278,38.999775 C5.87596825,39.797005 2.62870512,42.9686957 5.01687078,46.1505672 C6.74172235,48.4486725 9.6612441,48.7928597 11.6558852,50.701356 C12.9296518,51.9199118 13.6391708,53.5425644 14.030346,55.2380485 C14.3020933,56.4150982 14.6830878,58.1458233 14.4430574,59.3655537 C14.0671533,61.2779658 12.7483564,59.8084157 12.4922718,58.827541 C11.9848012,56.883412 12.2729944,54.5347946 11.1582038,52.7840996 C10.3966065,51.5882548 9.34759913,50.6911753 8.06051919,50.1484638 C5.37515436,49.0152696 1.37843246,47.3154783 1.56207727,43.7788473 C1.77234862,39.7323964 6.30982421,38.618389 9.5281114,38.0983884 C10.3402209,37.9672135 10.156576,36.5943804 9.33311116,36.656248 C4.79485243,36.9965195 -1.66130029,40.2621863 0.392467362,45.867856 C1.28680584,48.3100579 3.65578473,49.8841562 5.92882976,50.9006635 C8.17524825,51.9050323 9.98311198,52.6752441 10.4428113,55.4224765 C10.7407937,57.2044968 10.4533837,60.203115 12.1433858,61.3578454 C13.2096221,62.0865511 14.8714314,62.1061295 15.6314625,60.9412183 C16.7157108,59.2790175 15.8711013,55.8833505 15.3311308,54.129523 C14.8185699,52.4649727 13.9492917,50.8853924 12.6563382,49.7012945 C11.5783549,48.7137632 10.3233835,48.1702685 9.01829148,47.5668641 C7.68422354,46.9497549 5.74910062,45.8130366 5.48675089,44.2244503 C5.19973245,42.4890264 7.41521717,40.1568548 9.14868321,40.1443247 C9.99094331,40.1384512 9.82922624,38.7859796 8.99362278,38.999775" id="Fill-3" fill="#0F0E0E"></path>
                    <path d="M14.460952,4.01500807 C12.9444139,2.77961495 10.9912789,1.99961397 8.96257153,1.81831856 C8.6919989,1.79404142 8.39245033,1.78777635 8.17708862,1.94244522 C7.85208821,2.17660214 7.89594368,2.63042801 7.98678717,2.9969345 C8.51305289,5.12235886 9.06085479,6.75088501 10.7919714,10.0874254" id="Fill-5" fill="#DF559E"></path>
                    <path d="M14.7827415,3.69325767 C13.6424991,2.77855772 8.23926942,-0.469096977 7.42559369,2.16575574 C7.11468969,3.17325701 7.8719798,4.76732528 8.20285371,5.70395297 C8.77101707,7.31329235 9.51029511,8.86389671 10.3067419,10.3714287 C10.6462303,11.0139898 11.5993038,10.4477842 11.2774359,9.8040485 C10.3411998,7.92961842 9.4280661,6.06654379 8.84032439,4.04880028 C8.76005321,3.77313728 8.44954077,3.12117863 8.51884808,2.85021443 C8.73812547,1.99111697 9.89794621,2.46060551 10.4606276,2.59608761 C11.8444246,2.92852779 13.0892153,3.5703057 14.2314155,4.407867 C14.6441269,4.7105481 15.1860553,4.01669181 14.7827415,3.69325767" id="Fill-7" fill="#0F0E0E"></path>
                    <path d="M25.3988212,2.86991024 C26.5363226,1.68816177 28.0610835,0.885058344 29.6790374,0.615660414 C29.9069292,2.63066295 29.6492783,4.69931014 28.9338859,6.59723422" id="Fill-9" fill="#DF559E"></path>
                    <path d="M20.008983,2.46076214 C15.788285,1.70817083 11.3064118,4.95974119 10.5017421,9.35860215 C9.69707246,13.7570715 12.706263,18.5584631 16.8842803,19.5432535 C17.8714201,19.7758442 18.8926262,19.8181334 19.900519,19.7460851 C22.6579322,19.5487355 25.4466706,18.4065352 27.1856186,16.1640324 C28.0447161,15.0558985 28.6187529,13.7210474 28.9414039,12.3317685 C29.399537,10.3610131 29.3380611,8.18390188 28.3928189,6.40501409 C26.7192626,3.25407639 22.8310047,2.20624374 19.4020546,2.34250898" id="Fill-11" fill="#C07429"></path>
                    <path d="M13.8250867,18.5272553 C11.5696622,23.2264479 9.55113553,28.9621178 8.46884501,34.0611001 C8.04282037,36.0686629 7.81336225,38.4489972 9.26294239,39.9017099 C10.2395099,40.8798437 11.7082768,41.1339705 13.0795436,41.3062599 C19.0188282,42.0537608 25.2690168,42.1442127 30.7423369,39.7192398 C31.5442656,39.3640888 32.3598992,38.9247508 32.833695,38.1866475 C33.4167379,37.2786042 33.3638764,36.11291 33.2377919,35.0411917 C32.484809,28.643774 29.7947454,22.4871699 25.6112461,17.5890613" id="Fill-13" fill="#C07429"></path>
                    <path d="M26.2493433,16.7114036 C24.7249739,16.0347762 22.7236762,11.1519387 21.9002113,7.2276567 C21.3813854,11.0536555 19.8789437,16.6323071 16.8842412,19.5432144 C16.8842412,19.5432144 19.1984007,19.8967992 22.5506037,18.8215568 C24.9849742,18.0407727 26.2493433,16.7114036 26.2493433,16.7114036" id="Fill-15" fill="#FEFEFE"></path>
                    <path d="M20.1269229,2.03301461 C16.3483037,1.46876691 12.5837809,3.44931157 10.8119413,6.84302067 C8.9676619,10.3745613 9.85886784,14.748362 12.5281784,17.6146306 C15.4629713,20.7655683 20.1617724,21.0463217 23.963494,19.3747232 C28.0855173,17.5625522 30.4439239,12.9632091 29.7426278,8.52205893 C28.951663,3.51352852 23.9654519,1.5466887 19.4021329,1.70762263 C18.5884572,1.73620701 18.5818005,2.98452183 19.4021329,2.97708206 C23.9650603,2.93635912 28.6947952,4.92512669 28.5741926,10.2124526 C28.450066,15.6571884 24.006958,19.3426147 18.6879151,19.1628856 C14.2001685,19.0109577 10.7344111,14.8431211 10.9356764,10.4195914 C11.1443815,5.83238687 15.5217063,2.31376798 20.0090614,2.90425065 C20.4996945,2.96885916 20.6214718,2.10702073 20.1269229,2.03301461" id="Fill-17" fill="#0F0E0E"></path>
                    <path d="M25.6935535,3.16464254 C26.8545489,2.03105678 28.210153,1.35364628 29.8046129,1.07132665 C29.6053054,0.919398749 29.4059979,0.767470846 29.2062988,0.615542944 C29.368799,2.62662982 29.0939192,4.55783707 28.3844002,6.44558041 C28.127924,7.1276897 29.2466302,7.44525034 29.4831365,6.74865308 C30.160547,4.75322888 30.3837401,2.71081667 30.151541,0.615542944 C30.1163,0.29954857 29.878619,0.092409755 29.553227,0.160150804 C27.8373815,0.517259688 26.3431627,1.33720048 25.1042455,2.57533457 C24.7240342,2.95515433 25.3094265,3.5397635 25.6935535,3.16464254" id="Fill-19" fill="#0F0E0E"></path>
                    <path d="M22.3048956,14.6851239 C23.0476977,14.8288289 23.5261923,13.7273516 23.9514338,13.0444592 C24.3124583,12.4657235 24.5250791,11.5545477 24.0191748,11.0999387 C23.7004395,10.8137034 23.2262522,10.8755709 22.8969445,11.1210833 C22.5676369,11.3669872 22.3503173,11.7577708 22.1423954,12.137199 C22.1423954,12.137199 20.5620319,10.6382815 19.9966095,11.5729513 C19.4315787,12.5076212 21.1717014,14.4662381 22.3048956,14.6851239" id="Fill-21" fill="#DF559E"></path>
                    <path d="M22.5617242,11.8920782 C22.1114224,11.2980715 21.5142831,10.6825285 20.7041315,10.7162033 C20.0259379,10.7440045 19.4017805,11.2855413 19.3125032,11.9598193 C19.1237681,13.3819898 20.9848849,15.0430159 22.3048564,15.1326847 C22.8119354,15.166751 22.9074777,14.3769609 22.4238927,14.2536174 C21.7206388,14.0742798 21.1262405,13.553496 20.6904267,12.990423 C20.4323842,12.6568081 20.0228053,12.0604519 20.5388903,11.7726504 C21.0036801,11.5134332 21.4716024,12.0526206 21.7229882,12.3823198 C22.0965429,12.8721698 22.9399777,12.3913259 22.5617242,11.8920782" id="Fill-23" fill="#0F0E0E"></path>
                    <path d="M22.6106701,12.2662594 C22.6600075,12.0215302 22.7786522,11.7952046 22.9642548,11.6252646 C23.2195564,11.3911077 23.3194059,11.3171016 23.6201292,11.5144513 C24.055943,11.7999034 23.839015,12.3383077 23.6169966,12.7384889 C23.2269961,13.4417428 22.6200677,13.8990928 22.0021753,14.3822862 C21.6008194,14.6959312 22.1114224,15.2617451 22.5210013,15.0549979 C23.6776895,14.4715634 25.0712756,12.8461698 24.7051606,11.4416198 C24.5571484,10.8750227 24.0594671,10.457221 23.4619362,10.4799319 C22.5730796,10.5139982 22.3487119,11.2748124 21.7989522,11.7936384 C21.1928068,12.366109 22.4540433,13.0458688 22.6106701,12.2662594" id="Fill-25" fill="#0F0E0E"></path>
                    <path d="M14.9930912,11.7275027 C11.0868212,10.9713873 7.10615353,10.6326821 3.13253407,10.9615981 C2.42458137,11.0203332 2.41048496,12.1233767 3.13253407,12.0783465 C7.04741852,11.8332258 10.8683269,11.9444307 14.7350487,12.6641304 C15.3447181,12.7776848 15.6082426,11.846539 14.9930912,11.7275027" id="Fill-27" fill="#0F0E0E"></path>
                    <path d="M18.5316408,9.89728054 C18.57393,9.80369609 18.6162192,9.71011163 18.6589,9.61613561 C18.8503762,9.19246038 18.8096532,8.7268875 18.421219,8.42694736 C18.093086,8.1732121 17.4959467,8.13836266 17.2108861,8.49899565 L17.0248919,8.73471884 C16.8584761,8.94577332 16.7558856,9.14233983 16.743747,9.41291246 C16.7304337,9.7128526 16.8929339,9.9896903 17.1220005,10.1662869 C17.5335372,10.4842391 18.2908273,10.4294198 18.5316408,9.89728054" id="Fill-29" fill="#0F0E0E"></path>
                    <path d="M25.0196671,9.50359932 C24.6312328,9.16880974 24.5184616,8.835978 24.6813534,8.50471252 C24.8869259,7.93968169 25.4225893,8.05793485 26.2883434,8.85947201 C26.2652409,9.16489408 26.0643672,9.5509789 25.7221378,9.60188258 L25.2111432,9.60188258 C25.2224986,9.60344885 25.2338541,9.60501511 25.2452095,9.60697295 C25.5103002,9.64612962 25.7432824,9.65082842 25.984096,9.51025596 C26.1834035,9.39356906 26.3729218,9.16528564 26.4250002,8.93661066 C26.5397292,8.43383894 26.274247,7.89386838 25.7550294,7.75682001 C25.1610227,7.59941018 24.5650581,7.94947086 24.3880699,8.53368846 C24.2204793,9.08540602 24.4871363,9.65983446 25.0141851,9.88224438 C25.6175895,10.1367628 26.2957831,9.77847919 26.4845183,9.16646034 C26.6286149,8.69892963 26.4590665,8.07555535 25.9805719,7.85980207 C25.7401499,7.75172965 25.5110833,7.6910368 25.2471674,7.76386822 C25.0263237,7.82456106 24.7870764,7.99528417 24.6782209,8.20124828 C24.4350579,8.66133923 24.5631002,9.23028573 25.0196671,9.50359932" id="Fill-31" fill="#0F0E0E"></path>
                    <path d="M13.8544542,13.0598478 C11.1749629,12.8836427 8.58474877,13.243101 6.05444437,14.1425299 C5.38369052,14.380994 5.68245595,15.4625014 6.34890258,15.2118987 C8.77622491,14.2999397 11.263457,13.9064151 13.8544542,14.0309333 C14.4813526,14.061084 14.4743044,13.1005707 13.8544542,13.0598478" id="Fill-33" fill="#0F0E0E"></path>
                    <path d="M15.1447058,14.3450874 C13.2855469,15.0882811 11.5156651,16.0460533 9.96349448,17.3190369 C9.50888547,17.6918084 10.1212959,18.4992191 10.5986158,18.1417186 C12.1073225,17.0120485 13.6602762,16.0166858 15.4027483,15.281715 C15.9662129,15.044034 15.7304897,14.1109304 15.1447058,14.3450874" id="Fill-35" fill="#0F0E0E"></path>
                    <path d="M13.3218843,18.2331495 C11.7701052,21.3762558 10.4477842,24.6227358 9.36588529,27.9573184 C8.45901668,30.7515387 7.28823207,33.9244042 7.38142496,36.9077513 C7.46639495,39.6228752 9.07690903,41.319534 11.6847436,41.8818239 C14.9136031,42.5780295 18.4545413,42.6868851 21.740178,42.5126379 C24.9502423,42.3423064 28.2057283,41.7541731 31.1409127,40.4013099 C33.8709162,39.1432059 34.312995,37.1332938 33.9280849,34.2975673 C33.0779935,28.0324992 30.3981106,21.7760455 26.0881353,17.1120938 C25.5798816,16.561551 24.5606334,17.3106182 25.0289472,17.9292937 C28.1297644,22.0270398 30.591153,26.4161116 31.8010943,31.448136 C32.1213959,32.7802461 32.5431133,34.324977 32.5129626,35.6927197 C32.4655831,37.8424212 31.5841663,38.5331449 29.7997966,39.255194 C27.1285282,40.3367014 24.2646089,40.8214611 21.3948161,40.9467624 C18.8527647,41.0575758 16.2907434,40.9017323 13.765921,40.5974849 C12.1785093,40.4060087 10.1259164,40.2532977 9.29814424,38.6341692 C8.63130606,37.3294687 8.93829439,35.6214545 9.19555375,34.2615432 C10.2003141,28.9542473 12.1025454,23.7276142 14.3282108,18.8212827 C14.6332413,18.1489626 13.657457,17.5533896 13.3218843,18.2331495" id="Fill-37" fill="#0F0E0E"></path>
                </g>
                <path d="M23.5601803,26.013346 C24.9067784,29.940369 25.4103332,34.1544105 25.0258147,38.2881808 L25.0258147,38.2881808 L28.0420534,39.187218 C28.5080178,34.67911 27.8854267,30.0625379 26.2416294,25.8394904 L26.2416294,25.8394904 L23.5601803,26.013346 Z" id="Fill-40"></path>
                <g id="Group-50" transform="translate(23.102439, 25.304610)">
                    <path d="M1.9836772,13.5793786 C3.10747379,12.6184737 5.1228679,13.1196792 5.67262763,14.4921207 C6.22277892,15.8649537 5.12091007,17.614474 3.64587809,17.7186308 C2.17084611,17.8231791 0.834428762,16.256912 1.16295327,14.8151632 C1.49108622,13.3730229 3.36316689,12.537811 4.65886129,13.2500709" id="Fill-42" fill="#FEFEFE"></path>
                    <path d="M0.146250184,0.794763049 C1.05703446,4.91482848 1.69137261,8.74670078 1.34718543,12.9834531 C1.28688415,13.7227311 2.44122296,13.7195986 2.4995664,12.9834531 C2.82574151,8.87278527 2.42438558,4.34979765 0.736732856,0.545726591 C0.582063986,0.197232176 0.0710693666,0.454491536 0.146250184,0.794763049" id="Fill-44" fill="#0F0E0E"></path>
                    <path d="M2.21900882,13.9819483 C3.05304602,13.3527006 4.38515613,13.5069779 4.99169304,14.4083645 C5.61585045,15.3359862 4.94901226,16.7640302 3.91527602,17.0580968 C2.67009373,17.4120731 1.36186919,15.9765894 1.80277336,14.763124 C2.22018352,13.6146587 3.51392009,13.4783935 4.49714422,13.8374602 C5.16163301,14.0802316 5.54027806,13.0719472 4.96663276,12.7238443 C3.35651025,11.7464937 1.01768201,12.8785132 0.583042903,14.6550516 C0.104548324,16.6097529 2.03536401,18.6944543 4.02491471,18.2743031 C5.81280853,17.8964412 7.00904498,15.6629444 6.07320042,14.0164062 C5.17063904,12.4278199 3.03346768,12.1780003 1.65397799,13.2497185 C1.24048349,13.5708032 1.79572515,14.3014668 2.21900882,13.9819483" id="Fill-46" fill="#0F0E0E"></path>
                    <path d="M2.68963291,0.658850228 C4.29153252,5.00484968 4.64903297,9.29250568 4.42544835,13.8824512 C4.39255674,14.5606449 5.3695158,14.5167894 5.45331109,13.8824512 C6.05123353,9.36964433 5.19605173,4.63168656 3.58867018,0.41098847 C3.37800727,-0.142686927 2.48092782,0.0922531283 2.68963291,0.658850228" id="Fill-48" fill="#0F0E0E"></path>
                </g>
                <path d="M19.2858376,26.3986477 C19.9350552,30.3918455 20.2279472,34.4426036 20.1602061,38.4878798 L20.1602061,38.4878798 L22.9552096,38.984778 C22.802107,34.6466099 22.3651185,30.318231 21.6473767,26.0372316 L21.6473767,26.0372316 L19.2858376,26.3986477 Z" id="Fill-51"></path>
                <g id="Group-75" transform="translate(9.789169, 9.641940)">
                    <path d="M13.0450857,28.9123105 C12.0277953,28.2192374 10.4744499,28.5943583 9.81387682,29.6331849 C9.1533037,30.6720115 9.4207438,32.170146 10.3440582,32.9842132 C11.2673726,33.7986721 12.7169528,33.9020457 13.7949361,33.3072558 C14.5017141,32.9176469 15.0796666,32.1775857 15.023281,31.3725245 C14.9336122,30.0936674 13.4566224,29.4514979 12.2063497,29.1672205" id="Fill-53" fill="#FEFEFE"></path>
                    <path d="M9.04687586,16.8805213 C9.74347312,20.8016708 9.86994918,24.8727904 9.7838045,28.8460183 C9.76735869,29.6013505 10.9581132,29.6033084 10.9585048,28.8460183 C10.9612457,24.7224287 10.5019379,20.7076948 9.94591313,16.6326595 C9.86642508,16.049225 8.94115283,16.2845567 9.04687586,16.8805213" id="Fill-55" fill="#0F0E0E"></path>
                    <path d="M11.5095958,16.3952134 C11.8126685,20.7247671 12.461103,24.9912785 12.5789646,29.3427599 C12.5993261,30.0988753 13.79243,30.0969174 13.7536649,29.3427599 C13.5324297,25.0378749 13.2845679,20.4894355 12.1944461,16.3024121 C12.0977291,15.9308153 11.481403,15.9950322 11.5095958,16.3952134" id="Fill-57" fill="#0F0E0E"></path>
                    <path d="M13.2803782,28.5097407 C11.7650148,27.7548 9.86395821,28.0371197 9.11215003,29.7243808 C8.33841412,31.4609794 9.33181899,33.5108314 11.1009176,34.1091454 C12.8437812,34.6984534 15.2648385,33.8182113 15.584357,31.8274859 C15.8886044,29.9315196 13.8767344,28.9702232 12.3652867,28.5904035 C11.6173942,28.4020599 11.2978757,29.5665794 12.0469429,29.7443507 C12.8057993,29.9240799 13.9362525,30.2009176 14.3129397,30.9734788 C15.0373382,32.4590831 12.813239,33.2547467 11.7231172,32.9998368 C10.5973627,32.7367039 9.85651844,31.640317 10.1032055,30.4938095 C10.3455853,29.3668804 11.8049546,28.6299517 12.8097149,29.314802 C13.3073963,29.6538988 13.819174,28.7783555 13.2803782,28.5097407" id="Fill-59" fill="#0F0E0E"></path>
                    <path d="M17.0628739,2.29352397 C19.872757,1.66623403 22.7507726,1.36668546 25.6166497,1.13252854 C26.2795723,1.07810076 26.2838795,0.0353584783 25.6166497,0.0921356582 C22.6470074,0.345087784 19.7396243,0.856865537 16.8048314,1.35689629 C16.1971198,1.46066148 16.4461563,2.43135547 17.0628739,2.29352397" id="Fill-61" fill="#0F0E0E"></path>
                    <path d="M17.342061,3.73374567 C19.6021843,3.97769176 21.8630908,4.20049324 24.1259551,4.41546339 C24.7916186,4.47850564 24.8017993,3.41031153 24.1259551,3.36763075 C21.8650486,3.22470888 19.6045337,3.09040148 17.342061,2.97645556 C16.8475122,2.95178685 16.8678737,3.68245042 17.342061,3.73374567" id="Fill-63" fill="#0F0E0E"></path>
                    <path d="M17.0588408,5.01326836 C18.1223361,5.73766687 19.2300784,6.38492672 20.3245075,7.06116251 C20.9251709,7.4323678 21.4956837,6.45149307 20.8766167,6.11670349 C19.7442056,5.50507621 18.6301982,4.86760553 17.4719437,4.30649037 C16.9973648,4.07703224 16.6214607,4.71528606 17.0588408,5.01326836" id="Fill-65" fill="#0F0E0E"></path>
                    <path d="M4.30339699,29.3574828 C3.54375748,28.7763977 2.41173798,28.7403736 1.61685746,29.2717296 C0.821585372,29.8026942 0.421795712,30.8626654 0.668091203,31.7867629 C0.913995127,32.7108605 1.78797213,33.4313433 2.74222032,33.4963434 C3.26770291,33.5323675 3.79396864,33.3867047 4.26502345,33.1498068 C5.11746428,32.7214328 5.85870015,31.8462811 5.71969395,30.9022136 C5.55327808,29.7717604 4.30065602,29.1883259 3.2054438,28.8621508" id="Fill-67" fill="#FEFEFE"></path>
                    <path d="M4.52944848,28.9707714 C3.05833217,27.9276376 1.00182355,28.4135719 0.257455144,30.0930018 C-0.446190321,31.6811965 0.494353032,33.557976 2.15812019,34.0114103 C3.80622467,34.4605374 5.91050443,33.323036 6.29698082,31.6208953 C6.72143919,29.753905 4.85014165,28.7315241 3.36923617,28.2675175 C2.61037979,28.029445 2.28537939,29.2198079 3.0414948,29.4567058 C3.74044146,29.6759832 4.82468981,30.0225198 5.0686359,30.8146593 C5.43318456,31.9967993 3.80622467,32.9228547 2.83944635,32.874692 C1.73170399,32.8198727 0.949745172,31.7414978 1.26378171,30.6713459 C1.6326376,29.4155913 3.0391454,29.1023379 4.07718887,29.7441158 C4.57526179,30.0518873 4.99228039,29.2989044 4.52944848,28.9707714" id="Fill-69" fill="#0F0E0E"></path>
                    <path d="M23.7400661,26.5984642 C23.4922043,26.3803615 23.1084689,26.3717471 22.8077456,26.5084039 C22.5074139,26.6450607 22.2787389,26.90232 22.0931363,27.1752421 C21.6655454,27.8040983 21.4212077,28.5559065 21.3973221,29.3159375 C21.3793101,29.8895828 21.5437681,30.5489813 22.0586784,30.802325 C22.4396728,30.9898854 22.9025048,30.8939516 23.2842823,30.7091321 C24.1516027,30.2897641 24.7816336,29.4150039 24.9045856,28.459581 C25.0275376,27.5045497 24.6394949,26.4986147 23.9068735,25.8732826" id="Fill-71" fill="#FEFEFE"></path>
                    <path d="M23.9271958,26.2783193 C21.7336388,24.7151848 19.5569192,30.183023 21.8616812,31.2696207 C23.1679479,31.8855552 24.6386726,30.6102223 25.1477094,29.4915161 C25.7628608,28.1410023 25.4147579,26.4658797 24.2678589,25.5128062 C23.7682197,25.0977455 23.0931586,25.7442222 23.5462014,26.2340722 C24.5638834,27.3355495 24.7471366,28.9899191 23.4463518,29.9809745 C23.2713215,30.1352518 23.0712309,30.2495893 22.8464716,30.3243786 C22.5543628,30.1928121 22.262254,30.0608541 21.9697536,29.9292877 C21.8115606,29.725673 21.9067113,28.9769974 21.936862,28.7976598 C22.0288802,28.2569061 22.6103568,26.4443436 23.552858,26.9185309 C23.983973,27.1354589 24.3136722,26.5535907 23.9271958,26.2783193" id="Fill-73" fill="#0F0E0E"></path>
                </g>
            </g>
        </g>
    </g>
</svg>