<?xml version="1.0" encoding="UTF-8"?>
<svg width="76px" height="174px" viewBox="0 0 76 174" version="1.1" xmlns="http://www.w3.org/2000/svg" xmlns:xlink="http://www.w3.org/1999/xlink">
    <!-- Generator: Sketch 45.1 (43504) - http://www.bohemiancoding.com/sketch -->
    <title>Jessica</title>
    <desc>Created with Sketch.</desc>
    <defs>
        <polygon id="path-1" points="36.0717818 0.0511966819 36.0717818 35.1122706 0.166342794 35.1122706 0.166342794 0.0511966819 36.0717818 0.0511966819"></polygon>
        <polygon id="path-3" points="0.0599731344 0.0526336747 2.95394047 0.0526336747 2.95394047 6.25624856 0.0599731344 6.25624856 0.0599731344 0.0526336747"></polygon>
    </defs>
    <g id="Page-1" stroke="none" stroke-width="1" fill="none" fill-rule="evenodd">
        <g id="Desktop-—-7Tennis" transform="translate(-564.000000, -176.000000)">
            <g id="Jessica" transform="translate(601.500000, 263.000000) scale(-1, 1) translate(-601.500000, -263.000000) translate(563.000000, 176.000000)">
                <path d="M2.26879579,24.0530659 C1.39580047,22.6857535 0.495148275,21.231203 0.464184598,19.6242766 C0.447650596,18.7559663 0.689347647,17.9039406 0.784944242,17.040283 C0.96110652,15.452549 0.641549349,13.8569635 0.32349527,12.2898758 C0.601867744,12.757763 0.893166802,13.2396083 1.34529661,13.5557011 C1.79742642,13.871794 2.45818527,13.9761889 2.90490395,13.6531171 C3.15712264,13.4704986 3.88552059,12.7327547 3.99193944,12.4460321 C4.55499737,10.9292517 3.87169215,10.2799092 4.33674854,8.36445052 C3.71386759,9.52820724 6.93499184,12.4073565 6.53426775,13.0250025 C6.53426775,13.0250025 7.30775844,14.3143821 8.14437895,15.3449553 C9.06006206,16.4732352 9.78515321,17.7754097 10.0499979,19.1866319 C10.3145419,20.598145 10.0857714,22.1265571 9.24524289,23.308343" id="Fill-1" fill="#F5851F"></path>
                <path d="M2.54659709,23.8960082 C1.98173545,22.9520916 1.38290395,21.9878194 1.06815667,20.9336919 C0.720642004,19.7696444 0.93107476,18.7800732 1.07927954,17.6052663 C1.31225867,15.7561086 1.02516826,14.0162894 0.641278793,12.2052257 C0.44046582,12.2872296 0.239953465,12.3689426 0.0391404926,12.4509465 C0.779262557,13.7185166 2.59229106,15.0233083 3.83083814,13.4806473 C4.95124225,12.0851279 4.330165,10.0405568 4.60132264,8.43508433 L4.07253519,8.43508433 C4.51955449,10.4793646 5.58254052,12.340154 6.73150337,14.0936406 C8.55475289,16.8762463 10.9485758,19.703925 8.843647,23.081204 C8.53370961,23.579043 9.3303479,24.0254114 9.64689889,23.5354239 C11.5290696,20.6213794 10.3410264,17.4825513 8.38550483,14.9497374 C7.68205819,14.0386805 7.03693148,13.0796426 6.41555362,12.1147889 C5.8561031,11.2461878 4.41523996,9.52003594 4.60132264,8.43508433 C4.65813949,8.10328863 4.18286208,7.96312603 4.07253519,8.29404935 C3.69195252,9.43512415 3.96130645,10.4002687 3.86631109,11.5436699 C3.83414494,11.929844 3.72201434,12.465777 3.49625005,12.8089136 C2.59740157,14.1750628 1.23980967,13.2465583 0.60791017,12.1293285 C0.419121926,11.7954973 -0.0585604298,12.035693 0.0060724881,12.3747585 C0.232738628,13.5638143 0.474736297,14.7674097 0.47263197,15.981183 C0.470527642,17.1274921 0.125417923,18.2255294 0.0935523909,19.3645687 C0.0430485295,21.1805758 1.00202066,22.7363226 1.99105461,24.2100655 C2.21531581,24.5444783 2.75552675,24.2452515 2.54659709,23.8960082" id="Fill-3" fill="#0E0D0C"></path>
                <path d="M2.36183713,6.14421091 C1.85589666,5.2095997 1.47170657,4.2226456 1.56970811,3.23016642 C1.66770965,2.23739644 2.30772585,1.23183154 3.51260369,0.657223028 C3.05806893,1.21874582 3.31239195,1.90647312 3.49847463,2.53371531 C3.68125051,3.15048892 3.78676751,3.78558254 3.65539734,4.40817203 C3.5243278,5.03076152 3.13923585,5.64375481 2.45833558,6.07354803" id="Fill-5" fill="#F5851F"></path>
                <path d="M5.3557842,7.33230707 C5.148057,6.73559823 4.97910956,6.12376811 5.08432594,5.51659069 C5.1892417,4.90941327 5.59958557,4.30078189 6.36976946,3.92391315 C6.1196551,4.79745767 7.14776942,5.65907965 6.95086449,6.53814925 C6.80987454,7.16859017 6.04840858,7.73069455 6.14430579,8.364625 C5.81723317,8.04126231 5.55028419,7.69434533 5.35037307,7.33317945" id="Fill-7" fill="#F5851F"></path>
                <path d="M17.2884638,38.7068916 C15.90562,36.7731129 14.5098496,34.8486397 13.1197909,32.9195137 C12.434682,31.9689089 11.7561867,31.0139421 11.085808,30.0534502 C10.4313621,29.115931 9.86018752,28.044356 9.00072002,27.2734616 C8.71904075,27.0207618 8.16590322,27.2650286 8.31170306,27.6613805 C9.06685603,29.7143847 10.9081426,31.6638662 12.2038072,33.4377082 C13.6107005,35.3636355 15.0659933,37.2532135 16.5492436,39.1247623 C16.8751138,39.5362355 17.6083216,39.1541324 17.2884638,38.7068916" id="Fill-9" fill="#0E0D0C"></path>
                <path d="M9.8231213,30.0783131 C11.6154071,32.7114508 13.2017695,35.4670127 14.9411465,38.1324285 C15.3048946,38.6898802 16.2320012,38.1652882 15.8553266,37.6153971 C14.0519178,34.9822594 12.3970145,32.2630468 10.4472047,29.7252894 C10.1763477,29.3728474 9.56218468,29.6950469 9.8231213,30.0783131" id="Fill-11" fill="#0E0D0C"></path>
                <path d="M7.64306801,21.0599546 C9.17141105,22.3600936 10.7060671,24.6154902 11.0114952,26.5620637 C11.0114952,26.5620637 10.197421,29.6793731 7.33794051,29.3478682 C5.22609749,28.6834044 3.30033716,26.9659763 2.73096625,24.6969124" id="Fill-13" fill="#FEFEFE"></path>
                <path d="M8.1285965,28.843341 C7.58537937,28.7401092 7.31812977,28.0776809 7.47595434,27.5647207 C7.63407952,27.0514697 8.08530747,26.6766365 8.54555397,26.3788636 C8.67902846,26.2927887 8.81881594,26.2087493 8.97603927,26.1773436 C9.298302,26.1133689 9.63048514,26.2808661 9.95605467,26.2334668 C10.4475655,26.1619315 10.7352571,25.5986639 10.6432679,25.1258332 C10.5512788,24.6532933 10.185727,24.2749706 9.7931196,23.9798149 C9.51835454,23.7730606 9.20601221,23.5875341 8.85909878,23.5631075 C8.58253001,23.5436243 8.31107176,23.6282453 8.0477302,23.7117031 C7.18285157,23.9862124 6.25965301,24.3008513 5.72906184,25.0159132 C5.48736479,25.341893 5.34757732,25.7277764 5.24025661,26.1154045 C5.0965611,26.6341806 5.00847996,27.1997745 5.21590654,27.6979042 C5.54057422,28.4778132 6.45655794,28.8343264 7.28656486,29.0835366 C7.54148911,29.1603062 7.91605941,29.1731011 7.97347749,28.9209829" id="Fill-15" fill="#ECDDD0"></path>
                <path d="M5.43532778,21.0595475 C4.954038,21.1779005 4.47755812,21.3526676 4.09066247,21.65393 C3.70376681,21.9549015 3.41397085,22.3971989 3.38992139,22.8770086 C3.36557131,23.3568183 3.64815244,23.8598916 4.11320883,24.028552 C4.59209366,24.2024467 5.13230461,24.0047069 5.55557507,23.726708 C5.95359359,23.4655752 6.30050702,23.131744 6.5722659,22.748187 C6.71566079,22.5457945 6.84041735,22.3233372 6.87468783,22.0805244 C6.92459045,21.7260468 6.7604529,21.3512136 6.46284086,21.1389342 C6.16522882,20.9269455 5.74616702,20.8865252 5.41127832,21.0377379" id="Fill-17" fill="#ECDDD0"></path>
                <path d="M8.01457201,28.7817218 C7.7422119,28.6941928 7.44670418,28.6738373 7.18997622,28.5502499 C6.9422668,28.4310245 6.74926991,28.2242701 6.50306358,28.1030091 C6.29353268,27.9997773 6.05363934,27.9625557 5.84741524,27.853508 C5.52755745,27.684266 5.31652346,27.3382214 5.31832717,26.9857794 L5.31832717,27.0157311 C5.21551573,26.9075558 5.01440214,26.9357628 4.91790369,27.0491724 C4.82140524,27.1628728 4.81749721,27.3300792 4.87040601,27.4676247 C4.9230142,27.6054609 5.02402192,27.7200337 5.12533027,27.8296629 C5.47795544,28.2108936 5.863348,28.5706055 6.31397472,28.837845 C6.76490205,29.1053752 7.28767714,29.2772344 7.81616398,29.2594959 C7.92198159,29.2557156 8.0326091,29.2429207 8.11978838,29.1850527 C8.20696767,29.126894 8.26107895,29.0108673 8.21538498,28.9183948 C8.17931079,28.844824 8.09453645,28.8073116 8.01457201,28.7817218" id="Fill-19" fill="#AE8974"></path>
                <path d="M6.6251747,21.2239332 C6.73429912,21.2716234 6.85574888,21.3265834 6.96878133,21.2884894 C7.11277746,21.2405084 7.16508503,21.0509109 7.09924964,20.9183089 C7.03341425,20.785707 6.88400699,20.7083558 6.73459974,20.679858 C6.58519248,20.6513602 6.43127595,20.662992 6.27916313,20.6595025 L6.25300934,20.7438326 C5.96411523,20.6914898 5.65868712,20.7513933 5.37670722,20.8447381 C4.59990974,21.1012182 3.88323589,21.5627079 3.40765786,22.2100149 C2.93238045,22.8573219 2.71713781,23.6971343 2.90803038,24.4694826 C2.94650951,24.6256389 3.00783563,24.7879018 3.14010765,24.8847361 C3.27268028,24.9815704 3.49363468,24.9777901 3.57931087,24.8402447 L3.60847084,24.7948808 C3.38691521,24.4468007 3.4494438,23.9896729 3.62590669,23.6183292 C3.80267021,23.2469855 4.07923897,22.9297295 4.294181,22.577869 C4.43036106,22.3545394 4.54429536,22.114053 4.73007743,21.9273633 C5.12929843,21.5266495 5.77111833,21.4539511 6.24759822,21.1497808 C6.36994983,21.1320423 6.50763298,21.1724627 6.6251747,21.2239332" id="Fill-21" fill="#8E6355"></path>
                <path d="M10.5001135,24.8516729 C10.3951978,24.4306035 10.1838632,24.0345423 9.88985854,23.7076901 C9.84687014,23.6599999 9.79997369,23.6123098 9.73834696,23.590791 C9.62411203,23.5509523 9.49334311,23.6181256 9.42510277,23.7155416 C9.35686243,23.8129575 9.33642039,23.9333461 9.31778206,24.0496636 L9.0312929,24.5361616 C9.21406878,24.459392 9.42840957,24.3832041 9.60457185,24.4733501 C9.66559735,24.5047559 9.71489874,24.5533184 9.76450074,24.6001362 C9.94126426,24.7655979 10.1342612,24.9147751 10.3404853,25.0444691 C10.3600254,25.0566825 10.3801669,25.0688958 10.4030138,25.071513 C10.4514134,25.0773288 10.4956043,25.0369085 10.5085308,24.9912539 C10.521758,24.94589 10.511537,24.8976183 10.5001135,24.8516729" id="Fill-23" fill="#AE8974"></path>
                <path d="M9.86647386,29.2985356 C9.97832844,29.2985356 9.97832844,29.130558 9.86647386,29.130558 C9.75461928,29.130558 9.75461928,29.2985356 9.86647386,29.2985356" id="Fill-25" fill="#0E0D0C"></path>
                <path d="M5.62919647,28.1111222 C5.65685335,27.7592617 5.70074361,27.3722152 5.96679073,27.1308564 C6.16459752,26.9517274 6.44808051,26.8900791 6.66452563,26.7324689 C6.964242,26.5146643 7.09531154,26.1482642 7.2233749,25.8074539 C7.33610674,25.5067731 7.4888208,25.1784669 7.79665386,25.0618586 C7.92862526,25.0115513 8.07412448,25.007771 8.21391195,24.9845075 C8.75953402,24.893489 9.26096522,24.3293491 9.03309661,23.8413971 C8.80492737,23.352282 8.0828424,23.3319264 7.56217164,23.517162 C7.04150088,23.7021069 6.52774434,24.0193629 5.97911608,23.9405578 C5.66527066,23.8957755 5.38689818,23.7242072 5.08086883,23.6436573 C4.84819033,23.5822998 4.59717411,23.5727036 4.3858395,23.4610388 C4.07620273,23.2973219 3.89012005,22.9338297 3.54711466,22.8541522 C3.20350803,22.7738931 2.85268656,23.0390971 2.73394237,23.360715 C2.61489755,23.6826237 2.67261625,24.0388461 2.75408379,24.3712234 C3.07364096,25.671944 3.76446163,26.9060728 4.81572356,27.7738014 C5.02465322,27.9462421 5.31324672,28.111413 5.55794995,27.9904428" id="Fill-27" fill="#77493E"></path>
                <path d="M9.68904557,23.253761 C9.58082301,22.8187335 9.29403322,22.4636743 8.96425503,22.1833491 C8.90112521,22.1295523 8.83348611,22.0766278 8.75231919,22.0568538 C8.48837639,21.9920068 8.25359355,22.283673 8.11290423,22.5401531 C7.90698074,22.9161494 7.72420486,23.3043591 7.56607968,23.7015835 C7.53691971,23.7748635 7.53361291,23.891181 7.60846685,23.8885639 L6.98498465,24.3768066 C6.97235869,24.3616853 6.96123581,24.3456917 6.94590429,24.3320244 C6.81994525,24.2165792 6.63897308,24.1837195 6.46371266,24.19855 C6.47303182,24.18023 6.48415469,24.163364 6.49167015,24.1444624 L6.59598467,24.1371925 C6.55780616,24.1086947 6.51842517,24.0807785 6.47904419,24.0528623 C6.84399471,23.9220051 7.13950242,23.6163809 7.34662838,23.2877839 C7.70676901,22.7169557 7.87601707,21.9582747 7.51136716,21.3903545 C7.42809591,21.2600789 7.31386099,21.141435 7.16535559,21.0879289 C6.92846843,21.0021448 6.63296072,21.1219518 6.52984866,21.3452814 C6.41230694,21.60118 6.53736412,21.8931369 6.5683278,22.1714266 C6.60921188,22.5386991 6.47513615,22.9135323 6.23854961,23.2034537 C6.00196307,23.4930843 5.66947931,23.7015835 5.31144301,23.8298235 L5.32887886,23.8353486 C5.21945383,23.8562857 5.10972818,23.8740242 4.99910067,23.8664635 C4.75229311,23.8498883 4.52833254,23.7193219 4.28423054,23.6821003 C3.9634709,23.6335377 3.59100492,23.7382235 3.33938747,23.5393205 C3.21673523,23.4424862 3.14729242,23.2863299 3.00720433,23.2150855 C2.82983958,23.1246486 2.59836355,23.2127591 2.47631255,23.3668798 C2.35456217,23.5210005 2.31908922,23.7225206 2.30465954,23.9161893 C2.27519896,24.3090517 2.33231642,24.7417528 2.62090991,25.0197517 C2.81300496,25.2052781 3.08566569,25.2933886 3.35742456,25.3119994 C3.35261467,25.3311918 3.34570045,25.3498026 3.34179241,25.368995 C3.14639057,26.3175643 3.60423212,27.3591876 4.44055202,27.8689492 C4.59687349,27.9640387 4.77664319,28.044007 4.95971969,28.0195803 C5.14249557,27.9951537 5.08928614,28.0387727 5.05591752,27.8613885 C5.26665089,27.5418061 5.18638583,27.0902034 5.42748164,26.7915582 C5.68060219,26.4783733 6.1658,26.474593 6.50279302,26.2492278 C6.85632005,26.0128124 6.99430382,25.5728414 7.07787568,25.1622406 C7.1325882,24.8952919 7.15753951,24.5829794 6.98708898,24.3794238 C7.29221648,24.1906986 7.68632697,24.0130236 7.93974813,24.2287926 C8.04045523,24.3145767 8.09216157,24.4468879 8.17453096,24.5515737 C8.44328365,24.8947103 9.0231762,24.8583611 9.35986861,24.53558 C9.69626041,24.2127989 9.79726813,23.6887885 9.68904557,23.253761" id="Fill-29" fill="#3F2622"></path>
                <path d="M6.41558368,20.2395962 C4.52409382,20.1491594 3.04324845,21.4338863 2.36144633,23.0379048 C1.74878639,24.4790788 2.19009394,25.8397029 4.03198179,25.6256787 C5.58677924,25.4448049 7.60813617,24.5020515 8.27129997,23.0608775 C8.86111292,21.7796401 8.01667633,19.9583986 6.41558368,20.0892558 C5.81975836,20.1381092 5.82096083,21.0488753 6.41558368,20.9910074 C7.06131162,20.9281959 7.50412226,21.4527879 7.56995765,22.0416453 C7.63909985,22.6578373 7.25521037,23.1690528 6.78354038,23.5549361 C6.08159683,24.1295447 5.07512702,24.5747499 4.17056679,24.7364313 C3.50499805,24.8553659 2.85385897,24.7809227 2.9236024,23.9152296 C2.95396484,23.5377793 3.23504288,23.0111518 3.41361011,22.6735402 C3.9826804,21.597894 5.19807988,20.933721 6.41558368,20.840667 C6.8117985,20.8104244 6.81901333,20.2587886 6.41558368,20.2395962" id="Fill-31" fill="#0E0D0C"></path>
                <path d="M7.35832242,21.3353944 C8.87434012,22.7059055 11.4362086,25.4864757 10.0714019,27.5609985 C7.84021344,30.9522356 3.99290142,27.0506554 3.19866808,24.57222 C3.01438911,23.9967391 2.10802516,24.2337361 2.26314417,24.8214303 C3.03332805,27.736638 7.27444994,31.7106258 10.2220116,28.7797153 C10.755609,28.2493074 11.3971282,27.3359241 11.448534,26.5621219 C11.5116638,25.6135526 10.7535046,24.3584866 10.2758223,23.5730526 C9.64211906,22.5305569 8.84878757,21.6003076 7.92769334,20.784631 C7.54650943,20.4467286 6.97804037,20.9916762 7.35832242,21.3353944" id="Fill-33" fill="#0E0D0C"></path>
                <path d="M1.49960394,18.6634067 C2.27910699,19.7370173 3.0727391,20.7995778 3.87959841,21.8542869 C4.18893456,22.2584902 4.52532636,22.9180105 4.98016173,23.1899027 C5.36344996,23.4190482 5.91057513,23.0366544 5.76267096,22.6080244 C5.59071734,22.1101854 5.02074519,21.6489865 4.68254969,21.2549609 C3.8167692,20.2453249 2.94978625,19.236852 2.08220206,18.22867 C1.81525308,17.9181022 1.25730566,18.3295754 1.49960394,18.6634067" id="Fill-35" fill="#0E0D0C"></path>
                <path d="M16.6805837,36.1339191 C15.9278357,35.9318174 15.0746812,36.1743395 14.4989973,36.6303041 C13.9233134,37.0862688 13.5935352,37.7245611 13.4113605,38.3724497 C13.2030321,39.1148462 13.1732709,39.9087132 13.4675761,40.6301726 C13.7618814,41.3513412 14.4091124,41.9902151 15.2631688,42.2429149 C16.1211332,42.4967779 17.1101671,42.3348057 17.8608108,41.9021046 C18.6114545,41.4696942 19.133929,40.7912723 19.411099,40.0616707 C19.6894715,39.3297428 19.7303556,38.5149386 19.3885527,37.8022031 C19.0467497,37.0894675 18.2870875,36.5014825 17.3855334,36.3845834" id="Fill-37" fill="#F1E3E2"></path>
                <path d="M19.4783473,40.4601164 C21.5679446,42.3915687 26.9718578,46.4106296 31.3037663,48.3359752 C35.6356749,50.26103 40.7642218,50.8115027 45.4884372,50.1921119 L48.2859904,52.6871226 C37.3056092,54.9881738 25.1504119,50.8440716 18.0882887,42.3915687 L19.4783473,40.4601164 Z" id="Fill-39" fill="#F1E3E2"></path>
                <path d="M47.4799728,52.6195421 C46.1719829,51.0847325 45.0137009,49.4306975 44.0252682,47.6865164 C46.3027518,46.8312918 48.4852401,45.739652 50.5231311,44.4360235 L54.135059,47.1569809 L50.145254,53.8452379 L47.4799728,52.6195421 Z" id="Fill-41" fill="#56A2C3"></path>
                <path d="M50.2219116,43.9378937 C48.3235075,45.2935743 46.0397109,46.2488319 43.8430935,47.04677 C43.4273385,47.1979828 43.2024761,47.6205062 43.4330503,48.0215108 C44.4656739,49.8165808 45.6534165,51.4982413 46.988462,53.0949899 C47.5506181,53.7675959 48.5324372,52.8105936 47.9714836,52.1440943 C46.7058809,50.6395272 45.5975015,49.0430694 44.6174861,47.3518127 C44.4810054,47.6766294 44.3442241,48.001446 44.2077434,48.3262627 C46.5480563,47.378275 48.628635,46.1418198 50.8240499,44.934444 C51.5037477,44.560774 50.8306635,43.503157 50.2219116,43.9378937" id="Fill-43" fill="#0E0D0C"></path>
                <path d="M45.4882869,49.6559463 C40.2049216,50.0627668 34.8932982,49.3939411 30.1883224,46.9294638 C26.5520444,45.0247646 23.1120701,42.5957641 20.0728198,39.8849844 C19.2794884,39.1774832 18.1004637,40.3054723 18.8838748,41.0350739 C22.0827533,44.0151285 25.9995081,46.6284923 29.9562452,48.5602354 C34.791088,50.9208993 40.3176534,51.5984488 45.6355898,50.7092014 C46.246446,50.606842 46.1108672,49.6079654 45.4882869,49.6559463" id="Fill-45" fill="#0E0D0C"></path>
                <path d="M17.7693327,42.6999555 C24.7142149,51.3760788 37.3600211,55.9546269 48.4669625,53.3223616 C49.3315405,53.117352 48.9539641,51.910267 48.1050182,52.0515928 C37.0428688,53.8952253 25.8358215,50.3303844 18.406944,42.0831819 C18.0176434,41.6507715 17.4239224,42.2684175 17.7693327,42.6999555" id="Fill-47" fill="#0E0D0C"></path>
                <path d="M65.9680536,84.3085619 C65.9680536,84.3085619 66.6648867,87.297922 64.426784,86.2682212 C62.1886813,85.2385204 56.3485711,82.6187593 49.6489934,85.5764228 C48.5607554,86.0140675 47.8479896,86.8309072 47.6050901,85.5764228 C45.0224789,72.2339317 45.1781992,57.0713623 50.4874176,44.2956282 C50.4874176,44.2956282 54.630538,44.9478787 56.2015688,44.9083307 C57.7725996,44.868492 61.0959341,44.0048344 61.0959341,44.0048344 C61.0959341,44.0048344 69.0027946,57.3362754 65.9680536,84.3085619" id="Fill-49" fill="#56A2C3"></path>
                <path d="M61.3971836,44.6291396 C60.1150469,47.9421532 59.0301157,51.3264112 58.1493043,54.7598134 C58.0948924,54.9718021 58.0485972,55.2192676 58.1895872,55.3899635 C58.3164481,55.5432119 58.5431142,55.5699649 58.7457309,55.5815966 C60.9306241,55.7098367 63.1359594,55.500756 65.2538148,54.9654046 C65.5499237,54.8903798 65.893831,54.7609766 65.9578627,54.471346 C65.9897282,54.3279846 65.9407274,54.180843 65.8923279,54.0418436 C64.7118001,50.6506065 62.8407523,48.0078726 61.6605252,44.6163447" id="Fill-51" fill="#56A2C3"></path>
                <path d="M70.8229177,49.9821297 C74.4129005,43.2368771 75.5940295,35.3188532 74.1213008,27.8669718 C73.6950242,25.7092819 73.0294554,23.5428682 71.6896,21.7693169 C70.1468273,19.7276538 67.8056126,18.3504544 65.3345308,17.5248909 C60.1031725,15.7769294 54.0766789,16.4155126 49.3605803,19.2178923 C44.6444816,22.0199812 41.3310675,26.9309066 40.5777183,32.2349852 C40.5777183,32.2349852 48.2777534,33.5281451 56.9325521,38.1299567 C66.5944217,43.2674105 70.8229177,49.9821297 70.8229177,49.9821297" id="Fill-53" fill="#F5851F"></path>
                <path d="M46.9813674,27.7420758 C46.0873288,30.210915 45.5765784,32.8466699 45.8471349,35.4492742 C46.1176913,38.0521694 47.2185552,40.6230772 49.182494,42.4210552 C52.9985418,45.9143609 59.4949015,45.6587532 63.6635744,42.5661613 C66.6457072,40.3538022 67.9906731,36.7322564 68.0904784,33.0982065 C68.0904784,33.0982065 65.8310318,29.3100359 59.1999951,28.3888012 C58.2894225,28.3405294 57.328346,28.315812 57.8132432,27.1375155 C58.2981404,25.9595099 58.7033738,24.0760386 58.7033738,24.0760386 C58.7033738,24.0760386 56.2193654,25.1708772 54.9035594,26.2508853 C53.5874529,27.3311842 53.3788238,26.8095002 52.2887821,26.2508853 C51.1987405,25.6925612 49.7157908,24.7940085 48.2096935,25.1121369 C47.5585544,26.4012257 46.9813674,27.7420758 46.9813674,27.7420758" id="Fill-55" fill="#F1E3E2"></path>
                <path d="M68.0572,148.677336 C75.6384909,129.09441 74.0857978,106.84665 66.4251436,87.292804 C66.4251436,87.292804 59.0873534,83.1635323 55.4249216,83.8809206 C51.7621892,84.5980181 46.7746323,87.275938 46.7746323,87.275938 C42.1072337,107.276734 42.3582499,128.334857 47.5006253,148.226024 C47.5006253,148.226024 47.5478223,149.812304 51.7116853,149.512787 C55.8758489,149.213269 56.4268822,148.500824 56.4268822,148.500824 C56.4268822,148.500824 60.3977483,151.485532 68.0572,148.677336" id="Fill-57" fill="#C8B196"></path>
                <path d="M48.2306466,170.983894 C46.9671482,169.886148 46.8393854,168.292889 47.2906134,166.898823 C47.822407,165.255257 49.2308034,163.652111 51.4111874,163.075176 C53.5915713,162.498241 56.1708757,163.429363 56.9452682,165.001103 C58.2806144,167.71072 55.490276,171.293299 55.490276,171.293299 C52.8198843,172.327362 49.4944456,172.081641 48.2306466,170.983894 Z" id="Fill-59" fill="#9A9A9A"></path>
                <path d="M63.8041736,164.08897 C65.1425259,164.375402 66.7054401,165.308559 66.8422213,166.769798 C66.9790026,168.231037 66.0729393,169.669012 64.7402987,170.712671 C63.6664904,171.553938 62.2674132,172.190776 60.7447819,172.309129 C59.22185,172.427482 57.5861863,171.963666 56.7125897,170.994159 C55.9213625,170.115962 55.8365882,168.952787 56.1366052,167.908547 C56.526507,166.551121 57.5507133,165.232953 59.1445911,164.589717 C61.0613329,163.816206 61.8498545,163.670518 63.8041736,164.08897" id="Fill-61" fill="#9A9A9A"></path>
                <path d="M54.7191302,163.105331 C54.4587948,158.687011 54.1981588,154.083454 53.9378234,149.803551 L50.0159581,149.939934 C50.5285121,153.70077 51.6299773,159.393639 51.7117454,163.185881 L54.7191302,163.105331 Z" id="Fill-63" fill="#F1E3E2"></path>
                <path d="M64.7233138,164.037762 C64.7461608,159.353655 64.7690078,154.811747 64.7915541,150.127641 L60.5447205,150.520794 C60.9761077,154.593943 61.1077784,159.619732 61.538865,163.692589 L64.7233138,164.037762 Z" id="Fill-65" fill="#F1E3E2"></path>
                <path d="M60.6184321,92.761152 C58.9974986,91.9699022 57.0326579,93.3982812 56.449158,95.0613309 C56.2092646,95.7452778 56.1133674,96.4931995 56.2994501,97.1925585 C56.7115977,98.7421986 58.6124067,99.7169393 60.1966647,99.2569036 C61.7812234,98.7971586 62.8090371,97.0576302 62.503609,95.4850174 C62.1978802,93.9124046 60.666531,92.6733323 59.0158363,92.5683558" id="Fill-67" fill="#F1E3E2"></path>
                <path d="M47.5106058,87.443726 C49.9056312,85.4445188 53.9949409,84.9338849 57.0254732,85.0784094 C60.2820704,85.2336933 63.3895609,86.2875299 66.0350013,88.1244743 C66.9356535,88.7496809 67.8143606,87.2962936 66.9061929,86.6827187 C63.9448028,84.6817667 60.4134405,83.6014678 56.8006107,83.5604658 C55.0894918,83.5409827 53.3594339,83.7457015 51.7069356,84.177821 C49.8656489,84.6590848 48.3252812,85.5663614 46.6069474,86.3107934 C45.6945711,86.706273 46.6267882,88.1817606 47.5106058,87.443726" id="Fill-69" fill="#0E0D0C"></path>
                <path d="M60.3178139,92.761152 C63.2909281,81.4492739 64.2276545,67.0203772 63.2545533,55.3865903 L60.2946663,56.0097614 C61.0711631,67.0372432 60.3178139,81.3128916 57.8133635,92.8591496 L60.3178139,92.761152 Z" id="Fill-71" fill="#F1E3E2"></path>
                <path d="M46.2623187,27.5503555 C45.6373334,29.855187 44.9065305,31.9861238 44.9405004,34.4069821 C44.9672554,36.2942337 45.366777,38.1759603 46.2036981,39.8852462 C47.7900605,43.1241073 50.8644831,45.2666759 54.5203013,45.7624793 C62.45061,46.8381255 69.2737418,40.7936859 69.0888616,33.0984101 C69.0581985,31.8317123 67.2232249,31.884346 67.092456,33.0984101 C66.7512543,36.2637004 65.9251554,39.4417856 63.315188,41.5927872 C61.0157592,43.4878903 57.7498428,44.3285752 54.7737224,43.9534512 C47.0240853,42.9766749 45.0754779,34.0083038 47.7004763,27.9339125 C48.0618194,27.0972988 46.5121324,26.6285392 46.2623187,27.5503555" id="Fill-73" fill="#0E0D0C"></path>
                <path d="M50.9181434,32.7419841 C50.6532987,33.1994027 50.6466851,33.7527833 50.9217508,34.2078756 C51.1499201,34.5847443 51.7120761,34.6606415 52.0313327,34.3460026 C52.353896,34.0278742 52.5886789,33.551554 52.5372732,33.0982065 C52.5162299,32.9106445 52.4723396,32.7507079 52.3292453,32.6122901 C52.2059919,32.4930646 52.0039764,32.4035002 51.8269123,32.4110608 C51.4766921,32.4261821 51.0732624,32.7155219 51.1165514,33.0982065 C51.1237663,33.1615996 51.1225638,33.222957 51.123165,33.2866409 C51.1249687,33.4201152 51.1622454,33.1470599 51.1105391,33.3136847 C51.0597346,33.4771108 51.1640491,33.2345888 51.0903976,33.3453812 C51.1871967,33.1994027 51.0738636,33.3459628 51.0323783,33.3796949 C51.4021387,33.4259311 51.7718992,33.4718765 52.1416596,33.5181127 C52.2453729,33.7347541 52.1341441,33.5093889 52.1503775,33.5053178 C52.1624022,33.6132023 52.1660096,33.6280328 52.1615004,33.5506816 C52.1651078,33.488161 52.1630035,33.488161 52.1551874,33.5509724 C52.1443651,33.6132023 52.1455676,33.6134931 52.157893,33.5524264 C52.1777338,33.4933953 52.1756294,33.4922321 52.1512794,33.5489369 C52.1245243,33.6041877 52.1251256,33.6041877 52.1533837,33.5489369 C52.1690158,33.5213115 52.1864517,33.49514 52.2059919,33.4701318 C52.42875,33.1592732 52.2757353,32.6556184 51.9384417,32.4831777 C51.5864177,32.3031763 51.1219626,32.3904144 50.9181434,32.7419841" id="Fill-75" fill="#0E0D0C"></path>
                <path d="M59.4709723,34.1158684 C59.3380991,34.137678 59.2097351,34.1955459 59.0997088,34.2699891 C59.10512,34.2662088 58.7993912,34.5343207 58.9785597,34.3668235 C58.9160311,34.425273 58.8309561,34.4639486 58.7672251,34.5232705 C58.5363503,34.7393303 58.3761208,35.0650193 58.4055814,35.3811122 C58.4266246,35.6093853 58.5008773,35.7899682 58.6914693,35.9324572 C58.8898773,36.080762 59.0843773,36.090649 59.3242706,36.0583709 C59.8272049,35.9903252 60.3069916,35.5419211 60.2997768,35.0324504 C60.2925619,34.5130927 59.8335179,34.0702138 59.2890983,34.0824271 C58.9779585,34.0891154 58.6725303,34.2481796 58.5159082,34.5130927 C58.3292243,34.8288948 58.3658997,35.2543261 58.6337506,35.5166221 C58.8438827,35.7222133 59.1823788,35.8053803 59.4664631,35.7091276 C59.6814051,35.6364291 59.9149855,35.4948125 60.0171956,35.288349 C60.1512714,35.0176199 60.1711122,34.6087639 59.8981508,34.3959028 C59.6369136,34.1920564 59.3053317,34.1016195 58.9959955,34.2778406 C58.891681,34.3374533 58.7945813,34.4313797 58.7347583,34.5334483 C58.6872606,34.614289 58.6644136,34.6942573 58.6520883,34.7846941 C58.6361555,34.8419805 58.6361555,34.8992669 58.6520883,34.9565533 C58.6797452,35.213615 58.7077027,35.0714168 58.7359608,34.5302496 C58.8231401,34.4459194 58.9103194,34.3615892 58.9974986,34.277259 C58.9965968,34.2775498 58.9956949,34.2781314 58.9947931,34.2784222 C59.1189484,34.2458532 59.2431037,34.2135751 59.367259,34.1810062 C59.5960295,34.2106672 59.6272938,34.2147383 59.4610519,34.1932196 C59.3597436,34.17141 59.2584353,34.1757719 59.1574275,34.2063053 C59.0179407,34.2435269 58.9160311,34.3162253 58.8111153,34.4060806 C58.7404701,34.4665657 58.9993023,34.2836564 58.9091169,34.3345454 C58.9034051,34.3377441 58.8976934,34.340652 58.8919816,34.34356 C59.2058271,34.1725732 59.5217768,34.2577758 59.8398309,34.5991677 C59.8750032,34.7247906 59.9101756,34.8504135 59.9453479,34.9763272 C59.9351269,34.8794929 59.9017583,34.9481202 59.845242,35.1822092 C59.8088672,35.3886728 59.6808039,35.5174945 59.4613526,35.568965 C59.4081431,35.5765256 59.3546331,35.5840862 59.3014237,35.5916469 C59.3525288,35.5936824 59.3347923,35.5907745 59.2485149,35.5832139 C59.1718572,35.5814691 59.1006107,35.5593688 59.0353765,35.5169129 C59.0431926,35.520984 59.0510087,35.5253459 59.0588248,35.5297078 C58.8895767,35.4276392 58.755501,35.2362969 58.7690288,35.0324504 C58.7765442,34.9213672 58.8156246,34.8457608 58.871239,34.7512528 C58.9178348,34.6977468 58.9214422,34.6913493 58.8817606,34.7323512 C58.9121231,34.7102509 58.9424855,34.6881506 58.9731486,34.6660503 C58.9133255,34.6741925 58.8234407,34.7506713 58.7651207,34.7750979 C59.1204515,34.9149697 59.4757822,35.0548416 59.8314136,35.1947134 C59.8208919,35.1714499 59.8130759,35.1476048 59.8076647,35.1228873 C59.8199901,35.2450207 59.8260025,35.2691566 59.8257018,35.1955857 C59.8055604,35.3127756 59.8046586,35.3360391 59.8229963,35.265667 C59.7788054,35.3575579 59.768885,35.3811122 59.7935357,35.3363299 C59.8022536,35.3197547 59.8124746,35.303761 59.8235975,35.288349 C59.7448355,35.4157166 59.6173734,35.48289 59.4412111,35.4898691 C59.5160651,35.4895783 59.4902119,35.4831808 59.3639522,35.4709675 C59.4364012,35.4898691 59.4126524,35.4776557 59.2927057,35.4343274 C59.5416176,35.5451199 59.7983456,35.5741992 60.0454538,35.4343274 C60.2483711,35.3194639 60.3707227,35.1287032 60.4016864,34.9074091 C60.43265,34.6823347 60.3650109,34.4645302 60.1963641,34.3013949 C59.994048,34.1053999 59.7409275,34.0716678 59.4709723,34.1158684" id="Fill-77" fill="#0E0D0C"></path>
                <path d="M55.9515446,41.64766 C56.3309248,41.5778695 56.7532934,41.6444613 57.1431953,41.5909552 C57.5775886,41.5310517 57.9909386,41.4254936 58.3979757,41.2667202 C59.1726689,40.9645854 59.8382376,40.5219973 60.3754424,39.9031881 C60.9499238,39.2416323 60.0180073,38.2971341 59.3791936,38.9392067 C58.6411759,39.6807309 57.0975013,40.7217726 55.9515446,40.2565026 C54.9453754,39.8482281 54.5671977,41.9023954 55.9515446,41.64766" id="Fill-79" fill="#0E0D0C"></path>
                <path d="M53.2186845,149.995272 C53.5021675,151.123551 53.2761026,152.461784 53.3022563,153.618271 C53.3251033,154.639539 53.3467478,155.661679 53.3819202,156.682365 C53.4555716,158.813302 53.4555716,160.986113 53.6915569,163.105418 C53.8298413,164.347108 55.7550004,164.414281 55.7465831,163.105418 C55.7324541,160.878811 55.4718181,158.621669 55.2851341,156.402622 C55.1916419,155.290626 55.0957447,154.176014 54.9782029,153.066054 C54.8660723,152.011345 54.5513251,150.863873 54.6832965,149.803638 C54.8044456,148.830352 52.9406126,148.887929 53.2186845,149.995272" id="Fill-81" fill="#0E0D0C"></path>
                <path d="M64.0459909,150.127583 C64.1824716,152.40886 63.8307482,154.791915 63.7712258,157.082788 C63.7108016,159.400706 63.6347452,161.718914 63.6137019,164.037703 C63.6010759,165.419265 65.8319637,165.4213 65.8328656,164.037703 C65.8343687,161.719205 65.7814599,159.400997 65.7438826,157.082788 C65.7069066,154.791915 65.3789321,152.406243 65.5373579,150.127583 C65.6016902,149.201405 63.9903765,149.195879 64.0459909,150.127583" id="Fill-83" fill="#0E0D0C"></path>
                <g id="Group-87" transform="translate(55.013135, 162.791885)" fill="#0E0D0C">
                    <path d="M8.59281116,1.99263532 C9.56320678,2.23341257 10.6760954,2.77661535 10.9322222,3.8127136 C11.1910545,4.8607344 10.4539386,5.96458759 9.74808699,6.67615998 C8.31053065,8.1251854 5.99607095,8.99640357 3.94976271,8.41132648 C1.56555958,7.72999665 1.50573655,5.31291873 3.01003014,3.70395673 C4.40399684,2.21247542 6.59881049,1.86817558 8.5522277,2.13512427 C9.6609077,2.28633704 10.1809772,0.759669678 9.02991005,0.4592797 C5.98645117,-0.335459708 2.32101317,0.758506503 0.735552668,3.54867285 C-0.810526852,6.26963027 0.235323945,9.39130153 3.42849071,10.2412918 C6.6105346,11.0880833 10.3772809,9.49249777 12.0090366,6.73286477 C13.6879894,3.89384507 12.0126441,1.39156457 8.98932659,0.60147786 C8.06131814,0.359246639 7.66299899,1.76174505 8.59281116,1.99263532" id="Fill-85"></path>
                </g>
                <path d="M55.2920484,170.597778 C52.4400833,171.514942 46.5067814,171.378851 48.3294297,166.916038 C48.9541144,165.386172 50.3817503,164.210493 52.0700222,163.926969 C53.4808236,163.689972 55.5118003,164.062188 56.154522,165.448111 C56.5841055,166.374871 58.1079393,165.713025 57.8286649,164.765328 C57.182937,162.575941 54.5456133,161.789053 52.4097208,161.939394 C49.8857302,162.117069 47.611854,163.697242 46.6201145,165.94595 C45.7263765,167.973074 45.9326006,170.625113 47.9897311,171.936884 C50.1665077,173.325133 53.4249086,172.875275 55.6885638,171.988936 C56.5540437,171.64987 56.2233636,170.298261 55.2920484,170.597778" id="Fill-88" fill="#0E0D0C"></path>
                <path d="M60.9571687,92.2005889 C55.9632988,90.0338844 52.8302557,98.9502034 58.5714625,100.134025 C60.9289106,100.620232 63.0948649,98.8117855 63.383759,96.5825604 C63.716844,94.0157237 61.5397668,91.9758053 59.0157762,91.7402623 C58.0658226,91.6515702 57.8319417,93.2337792 58.7882082,93.3669627 C60.1445977,93.5556879 61.5605095,94.3774711 61.6789531,95.8503416 C61.7892799,97.2188172 60.6352066,98.6332381 59.1525575,98.516339 C55.4564565,98.2246729 57.3058598,92.2761953 60.4401054,93.3870275 C61.1465582,93.637401 61.6524987,92.5024328 60.9571687,92.2005889" id="Fill-90" fill="#0E0D0C"></path>
                <path d="M46.9016435,26.1259603 C49.1265189,25.3303485 51.4833658,26.2867693 53.0558997,27.8451331 C53.7364994,28.5194839 54.7625094,27.5092663 54.1188857,26.8171771 C52.1230814,24.671119 49.3089942,24.270696 46.505128,24.7348028 C45.5608862,24.8912499 45.9916721,26.4513585 46.9016435,26.1259603" id="Fill-92" fill="#0E0D0C"></path>
                <path d="M54.1548397,27.7642634 C54.9123976,27.0020929 55.7384965,26.388518 56.6677074,25.8319387 C57.4592352,25.3579448 58.3833356,25.0313834 59.0936965,24.4535762 C58.786164,24.2805539 58.4786316,24.1072408 58.1710991,23.9342185 C58.0673859,24.6100232 57.9122669,25.2739054 57.6645574,25.9151057 C57.4174493,26.556306 56.9770436,27.1143393 56.8180165,27.780257 C56.686947,28.3278217 57.3522151,28.7009102 57.7796942,28.3217151 C58.8574105,27.3658759 59.1363843,25.4137772 59.2554291,24.0761258 C59.2887977,23.6992571 58.877552,23.5079148 58.5567923,23.5611301 C57.6101455,23.7181587 56.6725173,24.3599406 55.8707685,24.8551624 C54.9737237,25.4091245 54.1139556,26.0296785 53.2511813,26.6313308 C52.359247,27.2536295 53.4192269,28.5043336 54.1548397,27.7642634" id="Fill-94" fill="#0E0D0C"></path>
                <path d="M57.251989,29.0834785 C59.7215677,28.9351736 62.0841263,29.5400247 64.2212212,30.742457 C66.3919854,31.9635001 67.5917528,33.6777294 69.1627836,35.4786153 C69.6852581,36.0773597 70.8345215,35.4387766 70.5465293,34.699288 C68.65534,29.8444858 62.1908458,27.4884746 57.251989,27.6408505 C56.2909125,27.6705115 56.2963237,29.1407648 57.251989,29.0834785" id="Fill-96" fill="#0E0D0C"></path>
                <g id="Group-100" transform="translate(39.681605, 15.650231)">
                    <mask id="mask-2" fill="white">
                        <use xlink:href="#path-1"></use>
                    </mask>
                    <g id="Clip-99"></g>
                    <path d="M1.6150714,16.7764458 C2.86774754,8.33790105 10.3287912,1.88256987 19.177188,1.74967711 C23.4832434,1.68512089 28.5291203,3.07278882 31.1895915,6.5817974 C33.793246,10.016072 34.1398588,15.1511994 34.0493727,19.2577892 C33.9345365,24.4792823 32.4028867,29.3372833 30.3316271,34.1158975 C29.9558544,34.9830446 31.3931101,35.5067642 31.8662832,34.7416857 C34.5405829,30.4181638 35.7731176,25.2725678 36.0184221,20.2685884 C36.2477938,15.5856453 35.8308363,9.81658744 32.965644,5.84870627 C27.4375755,-1.80702165 14.7121055,-1.2806849 7.7122102,3.93644636 C3.64965553,6.96419122 0.969944696,11.5066809 0.176913824,16.3928888 C0.0290096585,17.3053997 1.4797932,17.6886659 1.6150714,16.7764458" id="Fill-98" fill="#0E0D0C" mask="url(#mask-2)"></path>
                </g>
                <path d="M48.324229,85.3847897 C46.9404833,78.6546584 46.6010854,71.5712127 46.9924903,64.7305797 C47.1914995,61.25414 47.6355127,57.793694 48.3732298,54.3850093 C49.1052351,51.0019144 50.2638178,47.8058 51.3764058,44.5326252 C51.6977667,43.5872546 50.1375581,42.9225 49.6914407,43.8454794 C46.6449756,50.1516334 45.5179579,57.5831593 45.1205406,64.4752628 C44.7053868,71.6741537 45.5362956,78.7049657 46.8860714,85.7683467 C47.0598288,86.6767865 48.5115142,86.2958466 48.324229,85.3847897" id="Fill-101" fill="#0E0D0C"></path>
                <path d="M64.4949943,55.164453 C65.3800143,60.3754775 65.6734177,65.6789746 65.6132941,70.9560093 C65.553471,76.1818644 64.8957184,81.3486883 64.6732609,86.5591313 C64.6281681,87.6126772 66.424362,87.8866049 66.6107453,86.8127035 C67.5237229,81.5548611 67.6367553,76.004771 67.5721224,70.6846987 C67.5071889,65.3404906 67.0234941,60.0239079 65.9331518,54.780896 C65.7419586,53.8616968 64.3419796,54.2629922 64.4949943,55.164453" id="Fill-103" fill="#0E0D0C"></path>
                <path d="M46.0555535,87.0842177 C43.6506077,97.2715963 42.3636611,107.608152 42.4673744,118.06655 C42.5190807,123.281937 42.887338,128.494997 43.5748519,133.668218 C43.900722,136.120482 44.2879183,138.564313 44.7580852,140.994768 C45.2504979,143.538923 45.6331849,146.288378 46.7250302,148.664745 C47.0869746,149.452796 48.4565912,149.056444 48.3988725,148.225937 C48.2299251,145.788213 47.42998,143.373461 46.9513958,140.977611 C46.4310256,138.372971 45.9810001,135.75321 45.6187552,133.123562 C44.9318425,128.132668 44.5494562,123.100482 44.4580682,118.06655 C44.2719855,107.824793 45.2303564,97.4798046 47.493711,87.4677747 C47.6978308,86.5639876 46.2698943,86.1766503 46.0555535,87.0842177" id="Fill-105" fill="#0E0D0C"></path>
                <path d="M47.4874281,149.619944 C50.5877039,150.684831 54.1067408,150.9701 57.2815698,150.022693 C58.3484639,149.704274 57.9089601,148.139804 56.8195196,148.401518 C53.7613304,149.136354 50.8976412,149.222429 47.8839436,148.228787 C46.970966,147.927815 46.5900827,149.311703 47.4874281,149.619944" id="Fill-107" fill="#0E0D0C"></path>
                <path d="M65.7059746,87.4844371 C69.2409443,97.2885495 71.4961822,107.578869 71.8283654,117.974165 C71.9931042,123.127031 71.7417873,128.302288 70.9271119,133.400194 C70.5197743,135.949001 69.9831707,138.478907 69.3127921,140.975372 C68.6427141,143.46951 67.6028756,145.89444 67.0268911,148.402536 C66.7740712,149.502318 68.3847836,150.276411 68.9800077,149.19902 C70.2636475,146.875287 70.9406398,144.128158 71.6101165,141.588074 C72.2687711,139.087829 72.7933499,136.554725 73.1886628,134.0033 C73.9967246,128.788786 74.312975,123.502737 74.0959286,118.233263 C73.6561242,107.550371 71.2794365,97.0105507 67.1441322,87.1008801 C66.7936114,86.2613585 65.3840125,86.5917002 65.7059746,87.4844371" id="Fill-109" fill="#0E0D0C"></path>
                <path d="M56.7422006,150.067098 C60.4981247,151.554508 65.3534096,151.106976 68.8850725,149.216817 C69.7132757,148.773647 69.1487147,147.357481 68.2246142,147.701199 C64.6415456,149.033617 60.8973457,150.010102 57.138716,148.67594 C56.2251373,148.351705 55.8740152,149.723379 56.7422006,150.067098" id="Fill-111" fill="#0E0D0C"></path>
                <path d="M51.6903414,97.0050838 C52.2419759,114.12993 53.0461296,131.251577 55.0476457,148.285695 C55.1979549,149.566642 57.2881534,149.593395 57.1495684,148.285695 C55.3425522,131.24169 53.8118042,114.133128 53.1817084,97.0050838 C53.1477386,96.0797779 51.6602796,96.0745436 51.6903414,97.0050838" id="Fill-113" fill="#0E0D0C"></path>
                <path d="M60.6781349,44.4373902 C59.5366875,47.6971885 58.228397,50.9139493 57.4413785,54.2813413 C56.763785,57.1799737 60.6820429,56.4579328 62.5687229,56.2337308 C63.6235922,56.1083987 65.2424213,56.0688507 66.1076006,55.4040961 C66.984504,54.7303269 66.4593239,53.7288331 66.1289445,52.8826232 C65.5812181,51.4789616 64.9156493,50.1229902 64.2618047,48.7635293 C63.5616649,47.3081064 63.0797739,45.6642492 62.2332329,44.2925749 C61.8192816,43.6217136 60.9234393,44.1055945 61.020539,44.7872151 C61.2941016,46.7076173 62.6408712,48.628601 63.5355111,50.3387592 C63.8691973,50.9770516 65.2421207,53.0079553 65.1059407,53.6997538 C64.9661532,54.4092906 64.7464013,54.3173998 63.9777205,54.4680309 C63.3319925,54.5945262 62.6811541,54.690779 62.0249045,54.7506825 C61.4807855,54.800699 60.9330591,54.8300692 60.3865352,54.8382114 C60.4006643,54.8379206 58.8554866,54.9094559 58.9291381,54.9676146 C58.7057787,54.7911028 59.717359,52.0480451 59.8105507,51.7267179 C60.4842361,49.4047296 61.1825723,47.0591869 62.1162925,44.8209472 C62.4698195,43.9735741 60.9895754,43.5484336 60.6781349,44.4373902" id="Fill-115" fill="#0E0D0C"></path>
                <path d="M62.5088698,55.3866485 C63.0556943,61.5261776 62.832335,67.8026706 62.3624687,73.939001 C62.116563,77.1508184 61.7549193,80.3559474 61.2420646,83.5383946 C60.7553637,86.5600328 60.0002107,89.5214767 59.440159,92.5271212 C59.2345361,93.631556 60.8290152,94.0872299 61.1954688,92.9952992 C63.1627144,87.1328965 63.7239686,80.5673545 64.1703867,74.4502165 C64.6357437,68.0736904 64.4676981,61.7544507 64.0002368,55.3866485 C63.9322971,54.4627966 62.426801,54.4639598 62.5088698,55.3866485" id="Fill-117" fill="#0E0D0C"></path>
                <path d="M59.7368391,56.5914944 C59.8234171,62.5801015 59.7795269,68.552715 59.365275,74.5305628 C59.1515354,77.611523 58.8455061,80.686958 58.425843,83.7481442 C58.0082843,86.7947906 57.3135556,89.8106129 56.9383841,92.8592949 C56.8184374,93.8334541 58.3843577,93.9646021 58.6567178,93.0840785 C59.5227989,90.2860608 59.8712154,87.2746004 60.256608,84.3846917 C60.6813815,81.1984643 60.9868097,77.9976971 61.187322,74.7911141 C61.5651991,68.7460929 61.5874449,62.6112165 60.8524333,56.5914944 C60.7706652,55.9212147 59.7266181,55.878468 59.7368391,56.5914944" id="Fill-119" fill="#0E0D0C"></path>
                <path d="M49.376002,150.521521 C49.8927647,154.749663 50.507529,158.947562 50.9307994,163.185881 C51.0260954,164.139685 52.4552344,164.17458 52.4928117,163.185881 C52.6548449,158.920227 51.2951487,154.549015 50.6331874,150.356932 C50.5252654,149.67473 49.2912276,149.827396 49.376002,150.521521" id="Fill-121" fill="#0E0D0C"></path>
                <path d="M59.9164885,150.520881 C60.3036848,154.949089 59.9528633,159.516005 60.7633301,163.899722 C60.9244614,164.770649 62.3614165,164.557206 62.3433795,163.692677 C62.2519915,159.311868 61.6832218,154.871738 61.1730727,150.520881 C61.0834885,149.758711 59.847647,149.73283 59.9164885,150.520881" id="Fill-123" fill="#0E0D0C"></path>
                <path d="M16.7895879,35.7514381 C12.3233029,34.6661957 10.9960735,42.07882 15.4602541,42.9494566 C19.9508891,43.8250366 22.4321919,36.7145471 17.5585693,35.7773187 C16.7438939,35.6208717 16.3897656,36.8099274 17.2125577,36.9919643 C20.4844864,37.7163316 18.5821743,42.1486105 15.7308105,41.6682192 C12.6738238,41.1532234 13.6700726,36.2321202 16.6804635,36.5304746 C17.144618,36.5767108 17.2305948,35.858741 16.7895879,35.7514381" id="Fill-125" fill="#0E0D0C"></path>
                <g id="Group-129" transform="translate(1.202473, 0.238160)">
                    <mask id="mask-4" fill="white">
                        <use xlink:href="#path-3"></use>
                    </mask>
                    <g id="Clip-128"></g>
                    <path d="M1.46842983,5.73131282 C0.499837919,3.83475577 0.398830196,1.87742282 2.50405961,0.740128336 C2.32879919,0.570304767 2.15353876,0.400771991 1.97827834,0.231239216 C1.59438887,0.906753173 1.69359288,1.50636995 1.860436,2.24004267 C2.17097462,3.60590106 2.10183243,4.61640946 0.966698019,5.55567338 C0.613170989,5.84850272 1.0719144,6.41351504 1.46211685,6.1765181 C2.19171728,5.73392997 2.69946146,5.11104968 2.88374043,4.28490455 C2.97843517,3.86121801 2.97061909,3.41223241 2.90027443,2.98592872 C2.7761191,2.22957409 2.1739808,1.36707973 2.64174276,0.606653989 C2.8437582,0.278347809 2.44724277,-0.0749666372 2.11596148,0.0980556635 C-0.405624168,1.41389753 -0.325960339,3.85394816 0.850358767,6.08084695 C1.0604909,6.47894364 1.67134713,6.12882792 1.46842983,5.73131282" id="Fill-127" fill="#0E0D0C" mask="url(#mask-4)"></path>
                </g>
                <path d="M5.5297219,7.28592546 C5.20715855,5.95990581 5.3301114,4.99301649 6.54160284,4.20787327 C6.37506034,4.08399512 6.20851785,3.96011697 6.04167473,3.83652961 C5.8447698,4.66209316 6.36724427,5.21372897 6.52987873,5.98258773 C6.7174645,6.86892718 5.7127984,7.45371348 5.78133935,8.3644796 C5.9024885,8.2475805 6.02333702,8.13039061 6.14448616,8.01320071 C5.87873966,8.0187258 5.62471726,7.43219474 5.52551324,7.23387338 C5.41218017,7.00676343 5.02799009,7.22078766 5.17529301,7.43219474 C5.32079223,7.64069388 5.80629066,8.09607694 5.78133935,8.3644796 C5.73985404,8.81084806 6.4832829,8.81869949 6.50763298,8.3644796 C6.55032077,7.56276115 7.40768394,7.06841171 7.36229059,6.20911609 C7.31900156,5.39111318 6.6218679,4.7586367 6.70994904,3.92376775 C6.73850777,3.65303874 6.40602402,3.54428186 6.19799621,3.63966222 C4.58638192,4.38031399 4.5794677,5.96310455 5.18190662,7.37868868 C5.26818405,7.58108115 5.58443442,7.51070906 5.5297219,7.28592546" id="Fill-130" fill="#0E0D0C"></path>
            </g>
        </g>
    </g>
</svg>