<?xml version="1.0" encoding="UTF-8"?>
<svg width="43px" height="47px" viewBox="0 0 43 47" version="1.1" xmlns="http://www.w3.org/2000/svg" xmlns:xlink="http://www.w3.org/1999/xlink">
    <!-- Generator: Sketch 45.1 (43504) - http://www.bohemiancoding.com/sketch -->
    <title>shape 04</title>
    <desc>Created with Sketch.</desc>
    <defs></defs>
    <g id="Page-1" stroke="none" stroke-width="1" fill="none" fill-rule="evenodd">
        <g id="Desktop-—-7Tennis" transform="translate(-1273.000000, -630.000000)" fill="#D73535">
            <g id="amani" transform="translate(446.000000, 89.000000)">
                <g id="shapes">
                    <path d="M851.587278,562.736838 C850.035601,564.042585 850.15883,565.993677 851.84128,567.219832 C853.942456,568.750375 857.619199,568.593341 859.848634,567.362884 C864.704853,564.680401 862.416319,558.784101 857.964994,556.862049 C852.749149,554.609796 845.945161,557.200855 843.672974,561.631147 C841.107804,566.63472 844.212414,572.736454 849.751421,575.159724 C855.618618,577.728196 863.151919,576.175066 867.388222,571.969569 C872.104865,567.287594 872.709692,560.577084 869.718251,555.07552 C863.13683,542.973155 843.245445,539.646403 832.215214,549.285702 C820.617879,559.420841 823.839431,583.075952 842.607925,585.316374 C845.232195,585.629366 846.470769,582.300463 843.735845,581.815379 C832.798665,579.879345 828.584996,570.216383 830.107751,561.511758 C831.602843,552.963092 839.759832,546.442959 850.178949,547.321703 C859.794564,548.131611 868.962532,555.635895 867.346726,564.32331 C866.599809,568.336279 863.530407,571.925471 858.872863,573.119359 C853.85695,574.40467 848.3783,572.622443 846.453165,568.300785 C844.545634,564.01462 847.317024,559.448806 852.634722,558.514132 C855.540657,558.00431 858.577366,558.94006 860.03222,561.222429 C860.931287,562.634658 860.908653,563.94901 859.753069,565.176241 C858.850229,566.135653 858.120916,566.508878 856.666063,566.636871 C856.140454,566.745504 855.616103,566.739051 855.094267,566.617511 C853.787791,566.640098 853.122607,565.90548 853.098716,564.412583 C854.582491,563.510176 852.867348,561.660188 851.587278,562.736838" id="shape-04" transform="translate(848.500049, 564.505445) rotate(85.000000) translate(-848.500049, -564.505445) "></path>
                </g>
            </g>
        </g>
    </g>
</svg>