<?xml version="1.0" encoding="UTF-8"?>
<svg width="71px" height="43px" viewBox="0 0 71 43" version="1.1" xmlns="http://www.w3.org/2000/svg" xmlns:xlink="http://www.w3.org/1999/xlink">
    <!-- Generator: Sketch 45.1 (43504) - http://www.bohemiancoding.com/sketch -->
    <title>shape 01</title>
    <desc>Created with Sketch.</desc>
    <defs></defs>
    <g id="Page-1" stroke="none" stroke-width="1" fill="none" fill-rule="evenodd">
        <g id="Desktop-—-7Tennis" transform="translate(-821.000000, -128.000000)" fill="#D73535">
            <g id="amani" transform="translate(446.000000, 89.000000)">
                <g id="shapes">
                    <path d="M429.528047,31.9563238 C429.292795,30.2870847 431.850666,30.1105113 432.034168,31.7956098 C432.337756,34.5785408 432.773329,37.5050286 430.939698,39.7768573 C428.917181,42.2834106 425.360342,42.179023 422.445492,42.3160811 C418.18529,42.518055 413.659989,42.798979 409.977347,45.1050366 C406.232284,47.4492697 405.334445,50.9082606 404.331603,55.065336 C403.728504,57.561558 402.879122,60.0906441 400.813831,61.6478298 C398.143304,63.6612426 394.731847,63.1494556 391.64925,63.8729896 C385.139922,65.4017944 381.69454,72.0074592 382.291614,78.6371906 C382.50857,81.0418915 379.185243,81.1779435 378.759686,78.8655459 C377.73726,73.3133107 380.199485,67.5796195 384.100904,64.0439576 C386.032486,62.2939007 388.342257,61.0622448 390.896107,60.5477531 C394.552978,59.8108614 398.873869,60.7916489 400.661284,56.6027041 C401.913624,53.6676629 401.905823,50.2978843 403.437753,47.4610358 C404.957988,44.647237 407.54703,42.6285807 410.372679,41.3585288 C413.510103,39.9483812 417.01527,39.5272094 420.440499,39.3214489 C422.577897,39.1932237 425.110777,39.4927475 427.088956,38.6240959 C429.876748,37.3990894 429.92449,34.7722303 429.528047,31.9563238 Z M434.032711,39.6769108 C433.839239,37.9973212 436.345359,37.8366072 436.539106,39.5143694 C436.859361,42.2837348 437.035883,45.3826796 435.179138,47.5650696 C433.404255,49.6529669 430.531733,50.1102963 427.93688,50.2106231 C424.006994,50.3619532 420.050725,49.7527435 416.595848,52.0457187 C413.382606,54.1787086 412.966911,57.5500819 412.26003,61.1495356 C411.775998,63.6077831 411.114102,66.1363249 409.278724,67.8484735 C406.954205,70.0168777 403.951749,69.8611957 400.9834,70.1898419 C397.525161,70.5725178 394.586764,72.1727898 392.450575,74.9792435 C390.330653,77.7626343 389.978555,80.7476695 389.647744,84.2050142 C389.50113,85.7449392 386.985189,86.0317204 386.615301,84.4067117 C385.354665,78.8701465 388.32512,73.1002736 392.34818,69.8134135 C394.443182,68.1012418 396.949408,67.0403551 399.63167,66.6931769 C403.327521,66.2137295 407.114621,66.8658086 408.53264,62.5011166 C409.445367,59.6967534 409.489014,56.6048414 410.65337,53.8779282 C411.821899,51.1415043 414.138572,49.1711317 416.785655,48.0550366 C419.940196,46.7255771 423.240408,46.9012185 426.621082,47.0828368 C428.456648,47.180531 430.492443,47.363131 432.140506,46.4830165 C434.660127,45.1385951 434.324955,42.2070666 434.032711,39.6769108 Z M439.214564,44.7308171 C438.666314,42.7965266 441.578941,42.4311438 441.645473,44.2375061 C441.765847,47.4484047 442.680738,50.6464022 441.208853,53.631035 C440.140279,55.800177 438.135236,57.0419082 435.859228,57.4960445 C429.852834,58.6956886 423.645738,55.5532411 420.420098,62.5820504 C418.216204,67.3823049 417.404283,73.7099804 411.779377,75.4729514 C408.400296,76.5327187 404.771622,75.4655305 401.575398,77.3091299 C398.107579,79.3113402 397.559499,82.462804 395.989859,85.8663884 C395.339214,87.2747966 393.495828,86.7489588 393.220419,85.3041487 C392.117234,79.5048196 398.33665,73.9717469 403.17468,72.8880162 C406.276493,72.1947488 410.185231,73.4299063 412.735218,71.160382 C414.790415,69.329959 415.535325,66.2495284 416.458996,63.688443 C418.283273,58.6284451 420.923476,54.7745892 426.526759,54.3951847 C429.221889,54.2116368 431.96759,54.8283796 434.652326,54.5316098 C439.359965,54.0108654 440.427556,49.0100558 439.214564,44.7308171 Z" id="shape-01" transform="translate(410.282198, 58.654102) rotate(55.000000) translate(-410.282198, -58.654102) "></path>
                </g>
            </g>
        </g>
    </g>
</svg>