<?xml version="1.0" encoding="UTF-8"?>
<svg width="42px" height="42px" viewBox="0 0 42 42" version="1.1" xmlns="http://www.w3.org/2000/svg" xmlns:xlink="http://www.w3.org/1999/xlink">
    <!-- Generator: Sketch 45.1 (43504) - http://www.bohemiancoding.com/sketch -->
    <title>shape 05</title>
    <desc>Created with Sketch.</desc>
    <defs></defs>
    <g id="Page-1" stroke="none" stroke-width="1" fill="none" fill-rule="evenodd">
        <g id="Desktop-—-7Tennis" transform="translate(-716.000000, -584.000000)" fill="#82C341">
            <g id="amani" transform="translate(446.000000, 89.000000)">
                <g id="shapes">
                    <path d="M302.880518,512.15993 C303.017717,512.858832 302.91821,513.606087 302.502091,514.299128 C301.516068,515.944553 299.260578,516.617082 297.56293,515.606091 C295.973835,514.661034 295.30141,512.451505 296.213557,510.848572 C297.047304,509.381902 299.002765,508.718164 300.622013,509.257359 C301.960833,509.704247 302.845842,510.91011 302.880518,512.15993 M298.858028,521.682294 C293.142412,522.050061 287.315228,523.137242 281.55589,523.231015 C287.791655,514.612682 293.656531,505.751125 299.126395,496.655135 C304.747026,504.864676 310.367658,513.075683 315.986782,521.283759 C310.274182,521.189986 304.564597,521.314528 298.858028,521.682294 M322.24667,522.479366 C315.089712,512.304985 307.931247,502.129139 300.772781,491.953293 C299.952603,490.788456 298.039357,490.571605 297.27044,491.953293 C291.432703,502.429506 285.144169,512.641982 278.349054,522.559952 C278.210348,522.763615 278.131948,522.964348 278.101795,523.15629 C277.979673,523.148964 277.854535,523.150429 277.732413,523.141638 C275.265848,522.951161 274.724591,526.842745 277.147433,527.346775 C283.788764,528.725533 291.391995,526.658129 298.119264,526.206846 C305.497851,525.710142 312.896038,525.619299 320.288194,525.798054 C321.930057,525.837614 323.222139,523.865449 322.24667,522.479366" id="shape-05" transform="translate(299.082979, 509.405337) rotate(42.000000) translate(-299.082979, -509.405337) "></path>
                </g>
            </g>
        </g>
    </g>
</svg>