<?xml version="1.0" encoding="UTF-8"?>
<svg width="40px" height="51px" viewBox="0 0 40 51" version="1.1" xmlns="http://www.w3.org/2000/svg" xmlns:xlink="http://www.w3.org/1999/xlink">
    <!-- Generator: Sketch 45.1 (43504) - http://www.bohemiancoding.com/sketch -->
    <title>shape 06</title>
    <desc>Created with Sketch.</desc>
    <defs></defs>
    <g id="Page-1" stroke="none" stroke-width="1" fill="none" fill-rule="evenodd">
        <g id="Desktop-—-7Tennis" transform="translate(-453.000000, -421.000000)" fill="#3DBFBE">
            <g id="amani" transform="translate(446.000000, 89.000000)">
                <g id="shapes">
                    <path d="M6.20983577,354.570383 C7.53565986,354.27239 9.36462942,354.574915 10.7321836,354.576048 C16.3848203,354.58398 22.037457,354.59531 27.6900937,354.59871 C28.5676176,354.599843 29.4856792,353.847495 29.4117574,352.962581 C29.099378,349.178183 29.3032592,345.603401 29.9292103,341.958369 C35.8787267,347.940889 42.6843057,353.177861 49.4636545,358.289064 C42.4506173,362.702306 35.6188079,367.440734 29.2496062,372.670907 C29.1840304,369.176571 29.3736042,365.678836 29.265106,362.1845 C29.228145,361.031052 28.2015852,360.448663 27.0915652,360.610689 C19.8114556,361.675759 12.4955773,362.500622 5.20831397,363.516971 C5.16896847,361.147757 5.1069695,358.77401 5.16777618,356.409328 C5.20712168,354.91823 4.84824304,354.876308 6.20983577,354.570383 M52.1164949,356.97019 C44.9079226,350.27158 36.762212,344.633507 30.0961306,337.369503 C29.2710674,336.470992 27.5291348,336.938943 27.2620624,338.081061 C26.2235797,342.515831 25.6930116,346.829364 25.8754316,351.32192 C22.7110996,351.315121 19.54796,351.309456 16.3848203,351.303791 C12.8198796,351.296993 9.07371119,350.965008 5.52784711,351.303791 C3.58799478,351.489612 2.17155681,352.329204 1.77452496,354.222536 C1.05199852,357.667017 1.74233318,361.889906 1.77214038,365.401238 C1.78167868,366.566017 2.86427605,367.148406 3.96237316,366.98638 C11.2484442,365.911112 18.5714762,365.080584 25.864701,364.054038 C25.8909313,368.084308 25.6500892,372.117977 25.9910835,376.139183 C26.1115046,377.553233 27.7735539,378.278387 28.9169579,377.291498 C36.3484881,370.876151 44.4381612,365.187091 52.8425982,359.980712 C54.3114969,359.069737 53.4637802,357.066499 52.1164949,356.97019" id="shape-06" transform="translate(27.529860, 357.322293) rotate(-108.000000) translate(-27.529860, -357.322293) "></path>
                </g>
            </g>
        </g>
    </g>
</svg>