<?xml version="1.0" encoding="UTF-8"?>
<svg width="172px" height="160px" viewBox="0 0 172 160" version="1.1" xmlns="http://www.w3.org/2000/svg" xmlns:xlink="http://www.w3.org/1999/xlink">
    <!-- Generator: Sketch 45.1 (43504) - http://www.bohemiancoding.com/sketch -->
    <title>amani</title>
    <desc>Created with Sketch.</desc>
    <defs></defs>
    <g id="Page-1" stroke="none" stroke-width="1" fill="none" fill-rule="evenodd">
        <g id="Desktop-—-7Tennis" transform="translate(-1255.000000, -461.000000)">
            <g id="amani" transform="translate(446.000000, 89.000000)">
                <g transform="translate(809.000000, 372.000000)">
                    <path d="M45.3674873,43.9053995 C44.5624553,42.5991577 42.3241051,43.9347496 39.1391328,45.1710027 C37.821925,42.6481821 35.6213108,38.3450023 35.2526603,36.8803988 L33.6848476,37.1219729 L33.8654638,42.5214283 L36.6263106,51.7767159 L40.6646942,51.0071621 L45.3674873,43.9053995 Z" id="Fill-1" fill="#A67D5D"></path>
                    <path d="M37.1645468,52.2588642 C39.0958495,52.0353518 40.9632914,50.7249171 42.4253147,49.5205944 C43.0742427,48.9858416 42.126653,48.0111594 41.4915937,48.5868734 C40.2924315,49.6734731 38.6665636,50.9506873 37.0239242,51.2193538 C36.4417596,51.3148223 36.5707712,52.3275629 37.1645468,52.2588642" id="Fill-3" fill="#0F0E0E"></path>
                    <path d="M34.5572881,36.9748998 C35.8638524,39.6241517 36.9249723,42.3833859 38.0183451,45.124236 C38.3540976,45.9653912 39.7158144,45.6335091 39.4081219,44.7410717 C38.419571,41.8728228 37.1220375,38.9907051 35.5145537,36.4153123 C35.1336472,35.8050877 34.243145,36.3382279 34.5572881,36.9748998" id="Fill-5" fill="#0F0E0E"></path>
                    <path d="M37.2727874,47.4230926 C40.2374725,45.3930961 43.1976422,43.8401197 46.8144807,43.3685825 C47.7201416,43.250537 47.562425,41.9636469 46.6454755,42.1213635 C43.0863698,42.7332007 39.4134113,44.2636001 36.8634983,46.8928552 C36.6057978,47.1586189 36.9463882,47.6466051 37.2727874,47.4230926" id="Fill-7" fill="#0F0E0E"></path>
                    <path d="M79.7678006,8.96755963 C74.6250782,11.2375176 70.0051751,15.3097668 65.8206859,18.9675663 C58.8140694,25.0930341 52.4141296,31.9325807 46.7824535,39.3417132 C43.1788388,44.0832097 39.8745308,49.0724083 37.2288268,54.4144535 C36.6131192,55.6571571 38.4283115,56.7489172 39.104977,55.5110516 C47.7374614,39.7274577 59.79875,25.3697638 74.2583629,14.5818192 C76.272233,13.0791573 78.368993,11.5510156 80.6650758,10.5027969 C81.7094242,10.0260993 80.8018281,8.51118132 79.7678006,8.96755963" id="Fill-9" fill="#FFFFFF"></path>
                    <path d="M61.0615471,87.7509377 C60.5203437,80.1479653 57.4489016,65.7915616 57.554046,66.0657111 L51.6649919,70.4521033 C54.1707184,76.1369967 55.9904262,82.123777 57.0721879,88.2411815 L61.0615471,87.7509377 Z" id="Fill-11" fill="#A67D5D"></path>
                    <path d="M45.2398303,95.4284465 C48.1374295,89.5252011 49.9993884,83.1155855 50.7160475,76.5788934 L47.9777777,73.8103059 L43.955843,79.6480779 C43.4175424,85.280399 42.462212,90.8727266 41.1008177,96.3647477 L42.7057212,100.828869 L45.2398303,95.4284465 Z" id="Fill-13" fill="#A67D5D"></path>
                    <path d="M57.6317109,66.0442307 L57.526244,65.243069 C57.565915,64.8753862 56.9166645,64.8705482 56.9511751,65.243069 C57.2849924,68.8360403 58.3406293,72.4138528 58.9192461,75.9803767 C59.5523702,79.8829756 59.9490807,83.8097643 60.2400017,87.7510667 C60.3174086,88.7989629 61.9610156,88.8073487 61.8829636,87.7510667 C61.5975256,83.8826558 61.0743838,80.0313389 60.3764314,76.2167903 C59.7042813,72.5415742 59.0640615,68.5099637 57.4868955,65.0979311 L57.0353551,65.4462622 C57.1824283,65.6597763 57.3291789,65.8736129 57.476252,66.087127 C57.5136654,66.1819505 57.6681567,66.142602 57.6317109,66.0442307" id="Fill-15" fill="#0F0E0E"></path>
                    <path d="M57.71373,88.0644357 C56.7029246,81.8760749 54.9967471,75.7435115 52.3832959,70.0324933 C51.9959387,69.1861776 50.5010176,69.8002725 50.8632174,70.6730356 C53.2576716,76.4430765 55.2121963,82.280526 56.4307103,88.4182499 C56.5990703,89.2658557 57.8495147,88.8962376 57.71373,88.0644357" id="Fill-17" fill="#0F0E0E"></path>
                    <path d="M59.248548,94.0938544 C58.146467,92.7350404 56.7447566,90.6034473 57.6230027,88.7972858 C58.6538048,86.6776262 61.3620795,87.5071704 62.3677244,89.1888358 C63.2040417,90.5873208 63.4620648,92.7327827 63.0272959,94.3176894 C62.7737882,95.242057 61.4417441,95.7668115 60.6476781,95.325592 C60.1751734,95.062731 59.8500643,94.5473299 59.5759148,94.10095 C59.1434036,93.3968696 58.8150692,92.6357015 58.3738498,91.9342013 C57.7729786,90.9788708 56.2396765,91.8745334 56.8595769,92.8192204 C58.1767847,94.8269624 60.4702873,99.339786 63.4907698,96.7553624 C65.7949159,94.7837436 65.204043,90.1009473 63.6223616,87.8809813 C62.083254,85.7203606 58.5467253,84.8679169 56.6908943,87.1152979 C54.5228554,89.7403601 56.5580124,92.887274 58.3364364,95.0059659 C58.873447,95.6461857 59.7649167,94.7305263 59.248548,94.0938544" id="Fill-19" fill="#0F0E0E"></path>
                    <path d="M58.7924277,94.5499747 C57.9286955,93.5207851 57.0956035,92.4141887 56.7385641,91.1189129 C56.3815246,89.8233145 56.5950387,88.2913025 57.5848797,87.3827388 C58.9456289,86.1329395 61.2933164,86.5780293 62.5398903,87.9413587 C63.7867868,89.3050107 64.1238295,91.2814674 64.0438423,93.1272999 C64.0096542,93.9203984 63.900962,94.7347837 63.5068318,95.4243504 C63.1130241,96.1135945 62.3789484,96.6554429 61.5855275,96.6228675 C61.0427114,96.600613 60.5437593,96.3213031 60.1060877,95.9990967 C58.8298411,95.0602153 57.9051509,93.7313965 57.0046504,92.4274124" id="Fill-21" fill="#3B4BA9"></path>
                    <path d="M33.7283245,36.034696 C36.1995405,34.1730595 37.8121847,31.3535124 38.7504211,28.4052763 C41.6206052,19.3876924 41.7070429,9.33769373 32.8023442,3.86824965 C27.9856985,0.909692595 21.8308806,0.235284789 16.4881904,2.08079481 C13.9644022,2.95259027 11.5731734,4.40655028 9.99761999,6.56233305 C8.62913012,8.4349355 7.94923932,10.7219875 7.51382539,13.0003312 C6.15243115,20.1227356 6.6226782,27.7905363 7.64509462,34.9190687 C8.68105726,42.1417796 10.0992166,55.1274357 19.7273475,55.331274" id="Fill-23" fill="#272367"></path>
                    <path d="M32.0940386,38.3884147 C38.7655477,34.3561591 41.2438593,25.3521215 41.1354896,17.9604055 C41.0806597,14.2113303 40.0998495,10.4641902 37.8169903,7.44144991 C35.2361146,4.02393432 31.277073,1.73688231 27.1251593,0.817030059 C22.6894201,-0.165715318 17.8476172,0.291630578 13.7976225,2.41516046 C9.45057882,4.69447178 7.47863749,8.68770135 6.63844986,13.3669498 C5.00516381,22.4645208 6.06757381,31.9720259 7.73956332,40.9979955 C8.95291682,47.5501689 11.7247297,56.0081653 19.7273153,56.0268719 C20.6323312,56.0288071 20.6103992,54.7025685 19.7273153,54.635805 C13.3231826,54.1516892 10.918085,47.7398159 9.71924535,42.322299 C8.12208253,35.1047486 7.24996454,27.4453337 7.53927291,20.0652287 C7.71537366,15.5794976 8.05564159,9.87041461 11.1725603,6.33356335 C13.9885596,3.13827012 18.5849181,1.79526003 22.7281236,1.79171222 C31.1067778,1.78461658 38.6423417,7.32404942 39.6728213,15.8436487 C40.1411332,19.7143174 39.4905925,23.6594901 38.4010901,27.3740548 C37.2045081,31.4553347 35.2054743,35.0466934 31.4480133,37.2831084 C30.7407076,37.7040085 31.3867329,38.8157654 32.0940386,38.3884147" id="Fill-25" fill="#0F0E0E"></path>
                    <path d="M19.5994648,30.1360305 C19.5994648,30.1360305 23.0482657,30.8107608 24.6518791,30.7414171 C26.2554925,30.6720734 30.4293382,29.6919083 30.4293382,29.6919083 C33.5375487,36.101524 34.5583525,50.0063873 37.092139,56.8598027 C37.4143453,57.7315981 48.9054029,51.9402703 49.845897,51.9451082 C53.6878605,51.9647824 53.3424321,59.1691092 57.216326,66.3308621 C57.3991999,66.6688723 52.4016155,77.4493988 43.6655993,79.7977313 C43.3556491,75.7038727 43.0382807,73.6583948 43.0382807,73.6583948 C38.2754973,77.0168876 33.8807194,79.0014076 32.6483367,78.9772179 C20.1203489,78.7314509 16.2096867,71.0455887 16.2096867,71.0455887 C14.5709177,65.2645817 13.5675305,62.6037188 19.5994648,30.1360305" id="Fill-27" fill="#F59221"></path>
                    <path d="M29.8386267,38.9130079 C28.7226769,39.3797071 26.0956795,40.1573241 25.0761658,39.5067834 C24.4540077,39.1097504 24.1085793,38.4030898 23.8415254,37.7151357 C23.0732617,35.7377114 22.6971931,33.6090211 22.7407345,31.4883939 C22.7407345,31.4883939 28.3275791,31.4003436 29.1461573,30.0705572 C32.4994896,37.1565158 29.8386267,38.9130079 29.8386267,38.9130079" id="Fill-29" fill="#A67D5D"></path>
                    <path d="M28.6082114,30.2187269 C29.3255155,32.2554965 31.5693487,36.146807 29.5854738,38.0623058 C29.0255637,38.6031866 28.1660244,38.8154106 27.4103393,38.9663541 C26.1886,39.2105085 25.2980979,39.0198939 24.7033547,37.8365356 C23.7206093,35.8820108 23.5796642,33.6259216 23.4529104,31.4882004 C23.398403,30.5715735 22.0879684,30.572541 22.0286231,31.4882004 C21.8709064,33.9303888 22.3285749,37.3514522 23.8699402,39.3501634 C25.1994041,41.0740801 27.5390283,40.586094 29.3045512,39.8704025 C33.6190195,38.1213286 30.8255972,32.830888 29.6841676,29.9220004 C29.4271121,29.2669443 28.3663148,29.5317405 28.6082114,30.2187269" id="Fill-31" fill="#0F0E0E"></path>
                    <path d="M28.9316433,39.0794005 C29.1509629,37.7138134 29.0184036,36.5272298 28.5246119,35.2355018 C28.273362,34.5778655 27.2051464,34.8633035 27.4596217,35.529003 C27.8992285,36.6801084 28.1537038,37.7225216 28.0685561,38.962645 C28.0350131,39.4499861 28.8526238,39.571257 28.9316433,39.0794005" id="Fill-33" fill="#0F0E0E"></path>
                    <path d="M42.7033345,73.039978 C39.5986719,76.2688142 35.5780274,78.1985043 31.0503675,78.0823939 C28.8987776,78.027564 26.7775054,77.5289344 24.7736338,76.7571229 C22.6133356,75.9249985 20.0621325,74.7477682 18.3920781,73.1035162 C16.115347,70.8619407 15.7244421,67.2170423 15.6541308,64.1872064 C15.5712409,60.6232627 15.5715634,57.0506107 15.6921892,53.4879571 C15.8721603,48.1707467 16.4978662,42.9077211 16.9571473,37.6130876 C17.0255234,36.8241821 15.684126,36.6306648 15.5612425,37.4240857 C14.1611448,46.4584411 13.7576612,55.9101487 14.2591936,65.0422303 C14.4352943,68.2530049 15.0884152,71.9156425 17.5541482,74.2062423 C20.7942729,77.2167265 25.9798916,79.0848135 30.3469321,79.3434816 C35.4328894,79.6453686 40.007316,77.4521725 43.3945138,73.7311573 C43.8163816,73.2680059 43.1419738,72.5835997 42.7033345,73.039978" id="Fill-35" fill="#0F0E0E"></path>
                    <path d="M27.0232079,63.414137 C32.6235987,59.7156988 38.6435995,56.6329681 44.9154953,54.2433519 C45.6389275,53.9675898 46.365585,53.7008584 47.0954678,53.4428354 C47.7202061,53.2222256 48.6981136,52.6974712 49.3715538,52.7632671 C51.3176928,52.9542042 52.1798124,55.541208 52.757139,57.0806382 C53.9682348,60.3088293 54.999037,63.6553886 56.4113908,66.8013349 C56.8455146,67.7682763 58.4249384,67.0809674 58.1153107,66.0827406 C56.9803317,62.4213932 55.4792825,58.6810263 53.9169528,55.1790081 C53.3199519,53.8411585 52.4971808,52.3717171 51.2070654,51.5802313 C49.7895512,50.7110161 48.3723595,51.2383507 46.935816,51.7731036 C39.6847226,54.473315 32.8296946,58.0475796 26.3771826,62.3088307 C25.6927764,62.7610161 26.3329962,63.8698702 27.0232079,63.414137" id="Fill-37" fill="#0F0E0E"></path>
                    <path d="M41.2635658,70.1393149 C42.9955457,72.9030645 43.0174776,76.6318204 42.954907,79.7977635 C42.9371679,80.7124553 44.35823,80.7124553 44.3762916,79.7977635 C44.4427326,76.4224992 44.2566334,72.4063701 42.3688721,69.4932896 C41.9231373,68.8053356 40.8236365,69.4371696 41.2635658,70.1393149" id="Fill-39" fill="#0F0E0E"></path>
                    <path d="M43.7758397,80.7911523 C50.4118706,78.4389495 55.7535932,73.1756014 58.0809614,66.5098978 C58.4231645,65.5300552 56.8882497,65.1259266 56.5357257,66.0838372 C54.2767337,72.2228512 49.5665225,77.1881827 43.4329915,79.5471586 C42.6708559,79.8403373 42.9846764,81.0717524 43.7758397,80.7911523" id="Fill-41" fill="#0F0E0E"></path>
                    <path d="M8.78152499,75.1819243 C10.8753822,63.1241836 15.3043483,51.3573639 19.0989001,39.6882704 L15.9403751,38.5074923 C10.6773495,49.7982595 7.27499278,61.9511462 5.88392589,74.3294805" id="Fill-43" fill="#A67D5D"></path>
                    <path d="M18.1592123,39.518201 C16.170822,45.4795015 13.9950424,51.3740386 12.1017981,57.3679146 C10.2853157,63.1189263 8.2856369,69.1560212 7.67799257,75.1818275 C7.58865208,76.0674917 8.99810311,76.2281111 9.21226226,75.3895361 C10.7387913,69.4140443 11.9521448,63.4156529 13.7647568,57.5056344 C15.5754338,51.6036792 17.5199601,45.7407499 19.3935302,39.8584689 C19.6447801,39.0698859 18.4185255,38.7405839 18.1592123,39.518201" id="Fill-45" fill="#0F0E0E"></path>
                    <path d="M15.2696442,39.2714987 C13.5444374,41.6746611 12.528149,44.7370724 11.4586434,47.4798577 C10.2733499,50.5200145 9.24738565,53.6240321 8.3443049,56.7593349 C6.60490686,62.7986875 5.29124689,69.0360727 4.68457014,75.2970026 C4.57426528,76.4348843 6.29302147,76.3884402 6.43815945,75.2970026 C7.2651234,69.0854196 8.34172467,62.9580167 10.0098438,56.9109235 C10.7984268,54.0517053 11.7066681,51.229578 12.6965091,48.433898 C13.7369871,45.4946926 15.2551304,42.6051568 16.0066226,39.5820939 C16.1214428,39.1195876 15.5296024,38.9092988 15.2696442,39.2714987" id="Fill-47" fill="#0F0E0E"></path>
                    <path d="M18.4991254,29.7310956 C19.5634706,33.3563197 20.6258806,36.9821889 21.686678,40.6083807 C19.2157845,39.2789168 15.1738531,38.0097658 12.6687716,39.2734338 C14.1169261,35.7720607 17.6124937,33.41502 18.4991254,29.7310956" id="Fill-49" fill="#F59221"></path>
                    <path d="M17.9531486,29.8815875 C18.8933202,33.5258409 19.8609067,37.2126681 21.0571662,40.7820947 L22.0160444,40.0447938 C19.1981099,38.6666281 15.5648226,37.2910426 12.4804793,38.5898662 C12.7472106,38.9369072 13.013942,39.2839483 13.2806733,39.6309893 C14.8791262,36.1967022 18.4369419,33.744838 19.2390711,29.9351273 C19.4425868,28.9675408 18.0766772,28.589537 17.7593088,29.5271283 C16.5333767,33.1488047 13.4554839,35.5942183 11.9853975,39.084948 C11.7176985,39.7206523 12.5411147,40.1099446 13.0265206,39.8854646 C15.6331987,38.6798518 19.0078179,39.8754662 21.357118,41.1720321 C21.8596179,41.4494069 22.4559738,40.992061 22.3163188,40.4347312 C21.4003369,36.7830596 20.2240742,33.1552552 19.0452313,29.5806681 C18.818171,28.8923916 17.7696297,29.1704114 17.9531486,29.8815875" id="Fill-51" fill="#0F0E0E"></path>
                    <path d="M43.3158168,79.6479166 C42.7001092,85.2444371 41.427733,90.6477627 40.3620977,96.1610707 C40.1769661,97.1196264 41.5544868,97.5240776 41.8392798,96.5681021 C43.4609548,91.1296208 44.1073026,85.2860433 44.5959338,79.6479166 C44.6675352,78.8212752 43.4045122,78.841917 43.3158168,79.6479166" id="Fill-53" fill="#0F0E0E"></path>
                    <path d="M50.069603,76.4006317 C49.0962109,82.9224874 47.2281239,88.9931253 44.4566336,94.9705523 C43.9721952,96.0152232 45.490661,96.9392683 46.0231561,95.8862117 C49.0317052,89.9358771 50.8514129,83.2163112 51.3861657,76.5786677 C51.4461561,75.8352387 50.1815205,75.6507522 50.069603,76.4006317" id="Fill-55" fill="#0F0E0E"></path>
                    <path d="M49.3858741,97.4010651 C47.986744,95.1930327 44.2063834,92.2302827 41.6180895,94.3647786 C38.950776,96.5641028 40.5189112,100.50863 42.3853856,102.622807 C44.2992717,104.790201 48.0467343,106.938565 50.140269,103.730694 C51.7493654,101.264638 50.8878909,97.2849547 48.1205934,96.0287049 C47.3300753,95.6697303 46.2895972,96.7060155 47.1007573,97.3504281 C48.479568,98.4460586 49.5361725,100.010323 48.999162,101.855511 C48.0722141,105.040806 45.0307672,102.85148 43.6825966,101.325596 C42.5792254,100.077087 40.9707741,97.1614262 42.7092046,95.7271404 C44.4369916,94.3018855 47.377487,96.9201746 48.372811,98.182875 C48.8272541,98.7592341 49.7738763,98.0132248 49.3858741,97.4010651" id="Fill-57" fill="#0F0E0E"></path>
                    <path d="M48.8288668,97.7266257 C47.8587,96.2542816 46.3424919,95.1509104 44.6430875,94.6800183 C44.1444579,94.5419759 43.6168007,94.4568283 43.1101079,94.5629403 C41.6490523,94.8696653 40.9510998,96.6416387 41.1307484,98.1239813 C41.3645818,100.054316 42.6179289,101.722758 44.0770494,103.008035 C44.6685673,103.529242 45.3133024,104.011423 46.0554413,104.276864 C46.7975801,104.541983 47.6538942,104.56843 48.3515241,104.201715 C48.8953077,103.915632 49.3016941,103.415389 49.5826167,102.869348 C50.6634108,100.76904 49.7722636,97.8814396 47.695823,96.7554914" id="Fill-59" fill="#3B4BA9"></path>
                    <path d="M33.7260668,38.6961395 C34.3314534,37.2905588 36.6285038,34.4532726 37.944744,33.6724302 C35.2077643,33.9043285 32.4324036,32.0533355 31.5944737,29.437304 L30.7455778,30.3861839 L32.9052309,38.9625483 L33.7260668,38.6961395 Z" id="Fill-61" fill="#F59221"></path>
                    <path d="M34.2786877,39.0191521 C35.11565,37.2387929 36.6231498,35.3387755 38.3032026,34.2853963 C38.8811743,33.9231964 38.6715305,32.945934 37.944873,32.9627055 C35.3875419,33.0220508 33.1553198,31.7141964 32.2893298,29.2455606 C31.9822824,28.3698948 30.569606,28.7669278 30.899553,29.6287249 C31.9996989,32.5024569 34.8173109,34.5782525 37.944873,34.3824775 C37.8255374,33.9415806 37.7058792,33.5003611 37.5865435,33.0594642 C35.7819946,34.2924919 34.1090375,36.4011855 33.1733814,38.3731268 C32.8218249,39.1139756 33.9284214,39.7641937 34.2786877,39.0191521" id="Fill-63" fill="#0F0E0E"></path>
                    <path d="M29.5438676,29.2365943 C31.4106645,32.7518362 32.3366448,36.8918164 33.2345651,40.7386178 C34.4962979,46.1461364 35.2219878,51.6368674 36.353419,57.0634151 C36.5269395,57.8958621 37.9457439,57.7255668 37.858016,56.8598994 C37.2900427,51.2453174 36.0434688,45.5446201 34.6675607,40.075176 C33.6744944,36.1283906 32.5001669,32.2280493 30.6491739,28.5905691 C30.2766531,27.8584286 29.1565104,28.5070341 29.5438676,29.2365943" id="Fill-65" fill="#0F0E0E"></path>
                    <path d="M35.9104579,13.6407123 C35.9104579,13.6407123 34.0897826,10.400265 23.8385259,9.66457671 C22.8380414,9.73908087 21.5011594,8.52798507 20.5767917,12.5121838 C17.7765963,15.4739662 13.9123783,17.227878 13.9123783,17.227878 C13.6504849,21.0572629 14.6554847,24.9937274 17.4660011,27.6075012 C21.3953699,31.2617529 27.9746357,32.1587056 32.2039564,28.8566554 C34.3810261,27.1566058 35.7572567,24.5608937 36.2926545,21.8513289 C36.8283749,19.1417642 36.5726096,16.322217 35.9104579,13.6407123" id="Fill-67" fill="#A67D5D"></path>
                    <path d="M35.2932989,13.8108462 C37.2887849,20.5920151 34.4885895,29.901165 26.2763601,30.1059708 C23.2120136,30.1824102 20.0680025,29.0055024 17.8809344,26.8403663 C15.2919954,24.2772296 14.7430513,20.7155436 14.7436964,17.2280393 C14.7440189,16.1346665 13.1926552,16.1869162 13.0807377,17.2280393 C12.2211983,25.2261095 18.5579225,32.2469173 26.7179021,31.6615274 C30.3547373,31.4006016 33.5284211,29.4712341 35.3855422,26.3198048 C37.7722556,22.2691651 37.3116844,17.8866432 36.5276168,13.4705783 C36.3857041,12.6707068 35.0568853,13.0071043 35.2932989,13.8108462" id="Fill-69" fill="#0F0E0E"></path>
                    <path d="M30.1639615,19.1584389 C30.2320151,19.2819674 30.1449323,19.0616802 30.1768627,19.187789 C30.2094381,19.3174456 30.1510604,19.0732913 30.1813781,19.2410063 C30.1794429,19.287773 30.1829907,19.2739042 30.1923441,19.1990775 C30.1884737,19.2235897 30.1829907,19.2477794 30.1758951,19.271324 C30.169767,19.2951911 30.1623489,19.3187357 30.1533181,19.3416353 C30.1823457,19.271324 30.180733,19.2668086 30.1481576,19.3277665 C30.465526,19.2868054 30.7828944,19.2461667 31.1002627,19.2052056 C31.0551087,19.1545686 31.0538186,19.1574713 31.0970374,19.2139139 C31.0776857,19.187144 31.0596241,19.159084 31.0431751,19.1300564 C31.0496257,19.1471504 31.0563988,19.1645669 31.0628494,19.181661 C31.0518834,19.1503757 31.0425301,19.1184453 31.0351119,19.0858699 C30.996731,18.9568584 31.0235009,19.1829511 31.0318866,19.0487791 C31.0312416,19.0155586 31.0325317,18.9823382 31.035757,18.9494402 C31.0222108,19.0287823 31.0225333,19.0336202 31.0360795,18.9636315 C31.1005853,18.6523911 30.9454489,18.2898687 30.6100189,18.2137519 C30.3052291,18.1440857 29.9291605,18.3053501 29.8601393,18.63949 C29.7511246,19.1661796 29.9059384,19.6531981 30.2429811,20.0624872 C30.3623168,20.2076252 30.5767984,20.2527793 30.7522541,20.2292346 C30.9502868,20.2027873 31.0815561,20.0999006 31.1950862,19.9399263 C31.4995534,19.5099953 31.4769764,18.9733073 31.2692678,18.5124136 C31.1312255,18.2063338 30.6629136,18.1089301 30.393602,18.2827731 C30.0962305,18.4743552 29.9907635,18.8446183 30.1639615,19.1584389" id="Fill-71" fill="#0F0E0E"></path>
                    <path d="M22.4733258,20.4605846 C22.5400893,20.4428455 22.5226727,20.443168 22.4217212,20.4609071 C22.4871946,20.4628423 22.4726808,20.4592945 22.3781798,20.4505862 C22.4994507,20.4883221 22.4404279,20.437685 22.2001439,20.2986751 C22.2117549,20.3148016 22.2220758,20.3318956 22.2311067,20.3496347 C22.251426,20.3880156 22.2449754,20.3725342 22.2127225,20.302868 C22.2285264,20.3670512 22.229494,20.3531825 22.2149802,20.2609392 C22.2149802,20.3280252 22.2201407,20.3131889 22.2311067,20.2164303 C22.2133676,20.2799684 22.2214308,20.2677123 22.2549738,20.1799845 C22.5391217,20.1054803 22.8232696,20.0309762 23.1074175,19.956472 C23.0800026,19.9419582 23.0532327,19.9274444 23.0267853,19.911318 C23.0216248,19.9080927 22.8993864,19.8206874 22.9751807,19.8810003 C23.040654,19.9332499 22.9542163,19.8187522 22.9929198,19.900997 C23.0512975,20.0248481 23.0945164,20.0371042 23.0419442,20.2309441 C23.012594,20.3402813 22.917448,20.4418779 22.8281075,20.5063837 C22.8945485,20.4586494 22.7652144,20.5325085 22.7529583,20.5360563 C22.7142549,20.5405717 22.6758739,20.5450871 22.637493,20.5496025 C22.7081268,20.5518602 22.6749063,20.5402492 22.5381541,20.5147694 C22.3914035,20.5063837 22.3059333,20.4186558 22.2820662,20.252231 C22.1262848,20.1032226 22.1072556,19.9367977 22.2249786,19.7529563 C22.3023855,19.6758719 22.3794699,19.5987875 22.4565543,19.5217031 C22.6036275,19.5023514 22.7507006,19.4829997 22.8977738,19.4636479 C22.9629246,19.4771942 23.0190446,19.5062217 23.0661338,19.5507307 C23.1612798,19.6200744 23.1058049,19.5849188 23.0854856,19.5607291 C23.112578,19.5945946 23.1393479,19.6284602 23.1664403,19.6626482 C23.1325748,19.6191068 23.0990318,19.5755654 23.0654888,19.5320241 C22.9984028,19.45881 22.9719554,19.4575199 22.9187381,19.4207516 C22.9935648,19.4959008 23.0687141,19.57105 23.1438633,19.6458767 C23.1425732,19.6439416 23.1409605,19.6416839 23.1396704,19.6397487 C23.1677304,19.7439255 23.1961129,19.8484248 23.2244955,19.9529242 C23.2177224,20.0022711 23.2112718,20.0512955 23.2048212,20.1006424 C23.1528941,20.1896604 23.1012895,20.2783558 23.0493623,20.3670512 C23.0548453,20.3593105 23.0616184,20.3522149 23.0693591,20.3467319 C23.3202866,20.1299925 23.2541681,19.7597294 23.0693591,19.5342818 C22.8006926,19.2065925 22.2633595,19.3059313 22.0595213,19.6458767 C21.8889036,19.9303472 21.9701808,20.2793234 22.2020791,20.5012232 C22.4381702,20.7269934 22.8029503,20.8127861 23.0964515,20.6434584 C23.4215606,20.4560692 23.5147714,20.0538757 23.375439,19.7239287 C23.1190286,19.1166069 22.217883,19.1269278 21.8966442,19.6732917 C21.54154,20.2773882 22.0246882,20.9366372 22.6274946,21.0949988 C22.9374448,21.1765986 23.3241569,20.9934022 23.3938231,20.6599074 C23.4692949,20.2980301 23.3883401,19.950344 23.1419281,19.6720016 C23.0838729,19.6062057 22.9993704,19.5642769 22.9432503,19.5004162 C22.9971127,19.5616967 22.9938874,19.5275087 22.9432503,19.4797744 C22.8145613,19.3578585 22.6468463,19.2640026 22.4733258,19.2262667 C22.0701648,19.1385389 21.6631334,19.4133334 21.6631334,19.8435869 C21.6631334,20.2506183 22.072745,20.5799203 22.4733258,20.4605846" id="Fill-73" fill="#0F0E0E"></path>
                    <path d="M25.5001945,26.0595562 C24.2352364,26.391761 22.7583768,25.1322858 22.0581667,24.2408161 C21.6372666,23.7050957 20.7158017,24.4111113 21.1083193,24.9736016 C21.5998532,25.6786497 22.2139481,26.2492032 22.9831794,26.6449461 C23.8153038,27.0729419 24.6206583,27.0826177 25.5001945,27.2938741 C26.5455105,27.5448016 26.5219658,25.7912123 25.5001945,26.0595562" id="Fill-75" fill="#0F0E0E"></path>
                    <path d="M38.1912851,13.5743358 C32.2441758,9.74462837 25.1836969,8.34614331 18.2215894,9.55530394 C17.3943029,9.6991518 17.742634,10.9683028 18.5699205,10.8189719 C25.1566045,9.62916304 31.9929258,10.9292768 37.7029764,14.4096855 C38.2377292,14.7357622 38.7128142,13.9100883 38.1912851,13.5743358" id="Fill-77" fill="#0F0E0E"></path>
                    <path d="M20.5086414,10.2459994 C20.1551498,14.7626933 15.4804168,16.1127991 11.6561923,15.4029131 C10.6657062,15.2190716 10.2438385,16.7394726 11.2381949,16.9191212 C15.7229584,17.7289911 21.8603598,15.7789817 21.5771794,10.2459994 C21.5417013,9.55417508 20.5621812,9.56320589 20.5086414,10.2459994" id="Fill-79" fill="#0F0E0E"></path>
                    <path d="M78.768316,10.6401297 C89.9155578,22.4662947 99.0573152,36.3111677 107.560143,50.0995982 C119.309869,69.1516993 129.725293,89.0336671 139.258923,109.277512 C145.420836,122.361217 151.187652,135.629086 156.582269,149.047254 C156.941244,149.939691 158.40617,149.548786 158.04139,148.644738 C148.722886,125.541029 138.341973,102.839514 126.669009,80.8265983 C117.210206,62.9888182 106.98959,45.4164794 95.1547162,29.0355621 C90.3238793,22.3488942 85.2079268,15.8705799 79.5149702,9.89347543 C79.0450457,9.4000063 78.3022618,10.145693 78.768316,10.6401297" id="Fill-81" fill="#FFFFFF"></path>
                    <path d="M8.42896872,75.5917294 C6.89469902,74.8653945 5.21464629,74.183891 3.54491449,74.4915835 C1.87550521,74.7995986 0.369295522,76.5206125 0.916626965,78.1277737 C1.44170392,79.6688165 3.40171168,80.1684137 5.02338669,80.0226306 C6.46412302,79.892974 8.05354515,79.2817819 8.55636761,77.9255481 C9.08305721,76.5041635 8.03870882,74.8218531 6.59313456,74.3651522" id="Fill-83" fill="#A67D5D"></path>
                    <g id="Group-87" transform="translate(0.000000, 73.273715)" fill="#0F0E0E">
                        <path d="M8.75198135,1.76536161 C6.16755775,0.623286984 3.00483994,-0.621996869 0.817126818,1.96629708 C-0.792292097,3.87050735 0.113046359,6.40590657 2.33397995,7.25447995 C4.39816453,8.04306296 7.43058069,7.6789279 8.85196529,5.83664316 C10.4365495,3.78213445 9.02742098,1.08676093 6.81035773,0.303983432 C5.94856067,0.00016126442 5.33446576,1.41445023 6.18110396,1.79632438 C7.68860377,2.47589264 8.57168773,4.23883529 6.88034649,5.32382231 C5.90727698,5.94791561 4.43299765,6.06499358 3.3309166,5.7811682 C1.51636934,5.31382391 1.13288255,3.46863642 2.75681526,2.38042411 C4.3194675,1.33317296 6.57491168,2.12917414 8.10595609,2.87066795 C8.85164276,3.23190025 9.49637792,2.09434103 8.75198135,1.76536161" id="Fill-85"></path>
                    </g>
                    <path d="M49.4010652,45.6810175 C49.8942118,44.7501993 50.3915513,43.5836125 49.8893739,42.6244117 C49.34301,41.5819985 47.9945169,41.5365219 46.9679076,41.855503 C45.7339123,42.2386672 44.5415232,43.0069309 43.9445223,44.2525373 C43.3471989,45.4984662 43.5245897,47.2701171 44.573131,48.1415901 C45.5416851,48.9469446 46.9653274,48.7592328 47.8974357,47.9667794 C48.8295441,47.1743261 49.337527,45.9071103 49.5978078,44.6286059" id="Fill-88" fill="#A67D5D"></path>
                    <path d="M49.9580403,46.0065782 C50.5118223,44.9206236 51.0668944,43.6488923 50.548268,42.442957 C50.1780049,41.5824501 49.3684575,41.1025271 48.461829,40.9864168 C46.2915324,40.709042 43.7938691,42.302657 43.0714044,44.3423293 C42.3350711,46.4207052 43.2613739,49.1560723 45.6751798,49.4463482 C48.3992584,49.7743601 49.8886965,47.1244631 50.4044202,44.8509573 C50.6424465,43.8014485 49.0233517,43.3544235 48.7911309,44.4061901 C48.5092407,45.6827592 47.9883566,47.36894 46.5589088,47.7617801 C44.8943375,48.219126 44.1315567,46.41877 44.4760175,45.0670516 C44.7969337,43.8088666 45.9673909,42.9309431 47.1636504,42.5658405 C47.6803416,42.4081239 48.4405421,42.2726618 48.932076,42.5868049 C49.8951471,43.2025124 49.2255773,44.6074481 48.8440256,45.3553924 C48.4676345,46.0936609 49.580359,46.7471044 49.9580403,46.0065782" id="Fill-90" fill="#0F0E0E"></path>
                    <path d="M138.306441,134.300072 C135.100405,135.396748 131.549181,136.861217 129.192024,139.381341 C127.932938,140.727212 126.969091,142.321997 126.231554,144.004406 C125.509924,145.650816 124.731647,147.515725 124.963818,149.345194 C125.454951,153.210631 128.084464,156.244212 131.578482,157.698913 C135.559168,159.356207 139.942526,159.920172 144.229333,159.902313 C148.420982,159.884733 152.693557,159.410622 156.787259,158.500911 C160.40406,157.697518 163.992119,156.388761 166.938914,154.090205 C170.382145,151.404323 172.536431,147.562885 170.526694,143.305658 C168.81052,139.67016 165.755731,136.489519 161.858761,135.298522 C160.97835,135.029515 160.625628,136.3712 161.481482,136.666996 C164.649288,137.761719 167.051931,140.194779 168.69276,143.059813 C169.687304,144.796357 170.266617,146.651499 169.531034,148.601519 C168.897864,150.28002 167.593293,151.649331 166.220912,152.759124 C160.879845,157.077742 153.117717,158.025126 146.489101,158.360268 C142.736401,158.550024 138.941006,158.352176 135.294347,157.39642 C133.577336,156.946308 131.816793,156.370902 130.299863,155.428541 C128.660428,154.410557 127.781134,152.915672 127.020715,151.180802 C126.11491,149.11358 126.442239,147.412755 127.216331,145.390181 C127.859827,143.709447 128.72768,142.089547 129.901096,140.717445 C131.942087,138.33015 135.098731,136.965024 137.973531,135.875603 C145.49065,133.027034 154.118958,132.720076 161.376837,136.484775 C162.039866,136.828847 162.628109,135.828443 161.963685,135.480743 C154.694085,131.676698 145.969784,131.678651 138.306441,134.300072 Z" id="Fill-1" fill="#FFFFFF"></path>
                </g>
            </g>
        </g>
    </g>
</svg>