<?xml version="1.0" encoding="UTF-8"?>
<svg width="43px" height="38px" viewBox="0 0 43 38" version="1.1" xmlns="http://www.w3.org/2000/svg" xmlns:xlink="http://www.w3.org/1999/xlink">
    <!-- Generator: Sketch 45.1 (43504) - http://www.bohemiancoding.com/sketch -->
    <title>shape 02</title>
    <desc>Created with Sketch.</desc>
    <defs></defs>
    <g id="Page-1" stroke="none" stroke-width="1" fill="none" fill-rule="evenodd">
        <g id="Desktop-—-7Tennis" transform="translate(-1105.000000, -154.000000)" fill="#FFCA05">
            <g id="amani" transform="translate(446.000000, 89.000000)">
                <g id="shapes">
                    <g id="shape-02" transform="translate(659.000000, 65.000000)">
                        <path d="M16.0534125,12.6969872 C14.2623072,8.17100977 10.8544883,3.01106725 5.9448492,1.51335033 C3.46848712,0.76038854 2.37289694,4.11691576 4.27684392,5.46896432 C5.87714419,6.60353617 7.57797614,7.44471965 8.98952304,8.83985321 C10.4359483,10.2678134 11.4556268,11.8619587 12.1285736,13.7802674 C12.9964287,16.2607328 17.0094894,15.1097476 16.0534125,12.6969872 M9.54552479,18.4949981 C7.45077278,18.9032799 5.61863414,18.3329164 3.77418551,17.3706846 C0.922368368,15.8811744 -1.48218536,19.9660434 1.25063509,21.6894437 C4.02243721,23.4354123 7.61900948,23.6241657 10.69651,22.6701405 C13.3800904,21.8371637 12.2639836,17.9656681 9.54552479,18.4949981 M16.0780325,24.5638291 C13.5811538,27.6064513 10.9591234,30.5813685 8.64073964,33.7655557 C7.00145771,36.0162344 10.7006133,38.8844648 12.5183903,36.7568862 C15.0727157,33.7655557 17.3500661,30.5136635 19.7279481,27.3807679 C21.3097834,25.2962743 17.7521928,22.5244721 16.0780325,24.5638291 M25.8378125,26.8965745 C27.4504228,28.2363131 29.056878,29.5822066 30.6817983,30.9034802 C32.1425852,32.0934471 33.7162138,33.923534 35.6078508,34.2620591 C37.4010077,34.5862225 38.6196979,32.9530955 37.8708395,31.3199686 C37.0809477,29.59862 34.885664,28.4989265 33.3899987,27.3930779 C31.7055801,26.1477161 30.0026965,24.9269742 28.3039162,23.7000773 C26.4471576,22.3562354 24.0590172,25.4193743 25.8378125,26.8965745 M30.5771633,18.7309398 C34.0075505,17.861033 37.4338344,16.9767646 40.856015,16.0719794 C43.6647471,15.3272243 42.4501602,10.8771585 39.6537381,11.712187 C36.2602809,12.7257105 32.8750303,13.757699 29.4938831,14.8040492 C26.9970043,15.5775277 28.0248895,19.377215 30.5771633,18.7309398 M25.1279357,15.778591 C24.2395639,18.2180231 20.3331899,17.1819313 21.2030967,14.6953108 C22.7623636,10.2308834 24.0343972,5.45870598 26.1722342,1.23227195 C27.1939644,-0.78862005 30.1011765,0.690631862 29.6580165,2.70126553 C28.6773196,7.15133126 26.6872026,11.4988136 25.1279357,15.778591"></path>
                    </g>
                </g>
            </g>
        </g>
    </g>
</svg>