<?xml version="1.0" encoding="UTF-8"?>
<svg width="47px" height="45px" viewBox="0 0 47 45" version="1.1" xmlns="http://www.w3.org/2000/svg" xmlns:xlink="http://www.w3.org/1999/xlink">
    <!-- Generator: Sketch 45.1 (43504) - http://www.bohemiancoding.com/sketch -->
    <title>shape 07</title>
    <desc>Created with Sketch.</desc>
    <defs></defs>
    <g id="Page-1" stroke="none" stroke-width="1" fill="none" fill-rule="evenodd">
        <g id="Desktop-—-7Tennis" transform="translate(-456.000000, -90.000000)" fill="#FF8516">
            <g id="amani" transform="translate(446.000000, 89.000000)">
                <g id="shapes">
                    <path d="M36.4955733,21.7504743 C34.9438969,23.1450436 35.0671257,25.2288562 36.7495754,26.5384188 C38.8507515,28.1730745 42.5274952,28.0053585 44.7569297,26.6912011 C49.6131486,23.8262458 47.3246146,17.5288583 42.8732902,15.4760615 C37.6574444,13.0706019 30.8534567,15.8379143 28.5812693,20.5695706 C26.0160993,25.9135047 29.1207095,32.4303014 34.6597163,35.0184106 C40.526914,37.7615994 48.0602148,36.1028202 52.2965177,31.6112505 C57.0131612,26.6107893 57.617988,19.4438063 54.6265471,13.568006 C48.0451256,0.642393968 28.153741,-2.91065597 17.1235099,7.38434355 C5.52617505,18.2089118 8.74772681,43.4731301 27.5162208,45.8659536 C30.1404903,46.2002366 31.3790651,42.6448892 28.6441412,42.1268079 C17.7069603,40.0590776 13.4932913,29.7388058 15.0160467,20.4420605 C16.5111384,11.3118824 24.6681276,4.3482262 35.0872447,5.28674602 C44.70286,6.15174653 53.8708279,14.166499 52.2550223,23.4448645 C51.5081051,27.7308099 48.4387032,31.5641522 43.7811592,32.8392525 C38.7652458,34.2119957 33.2865959,32.3085351 31.361461,27.6929015 C29.4539301,23.1151763 32.2253197,18.238779 37.5430177,17.2405247 C40.448953,16.6960224 43.4856616,17.6954254 44.9405154,20.1330497 C45.8395824,21.6413441 45.8169485,23.0451033 44.6613646,24.3558145 C43.7585253,25.3804898 43.0292123,25.7791022 41.5743585,25.9158022 C41.0487501,26.0318248 40.5243992,26.0249324 40.0025631,25.8951249 C38.6960868,25.9192484 38.030903,25.1346596 38.0070117,23.5402098 C39.4907865,22.5764177 37.7756435,20.6005865 36.4955733,21.7504743" id="shape-07" transform="translate(33.408344, 23.639389) rotate(2.000000) translate(-33.408344, -23.639389) "></path>
                </g>
            </g>
        </g>
    </g>
</svg>