<?xml version="1.0" encoding="UTF-8"?>
<svg width="54px" height="55px" viewBox="0 0 54 55" version="1.1" xmlns="http://www.w3.org/2000/svg" xmlns:xlink="http://www.w3.org/1999/xlink">
    <!-- Generator: Sketch 45.1 (43504) - http://www.bohemiancoding.com/sketch -->
    <title>shape 03</title>
    <desc>Created with Sketch.</desc>
    <defs></defs>
    <g id="Page-1" stroke="none" stroke-width="1" fill="none" fill-rule="evenodd">
        <g id="Desktop-—-7Tennis" transform="translate(-1403.000000, -102.000000)" fill="#3DBFBE">
            <g id="amani" transform="translate(446.000000, 89.000000)">
                <g id="shapes">
                    <path d="M999.787615,41.8533789 C1001.20044,42.8375576 1002.61364,43.8199798 1004.02647,44.8041585 C1002.1175,44.9794588 1000.20854,45.1547591 998.300268,45.3311243 C995.516863,45.5867619 991.275166,45.123942 988.847626,46.6549828 C986.695162,48.0104153 986.03526,51.7714399 985.174568,53.9852638 C984.227068,56.4174675 983.281325,58.8500445 982.334517,61.2833131 C980.325159,56.7226784 978.876056,51.9662722 977.957334,47.0380373 C977.810419,46.2522538 976.895693,45.7879453 976.173581,45.7950971 C972.032234,45.8318596 967.948677,46.3049988 963.934525,47.1857737 C966.973899,43.8084339 970.583445,40.9616942 974.216259,38.2300544 C975.38206,37.3533631 975.01422,35.8147166 974.117827,35.1734685 C972.58809,29.7426704 972.841092,24.0307982 972.389399,18.4298367 C974.465571,20.1626976 976.492051,21.9565962 978.427943,23.8441476 C980.132683,25.5063197 982.122171,28.8216615 984.517172,29.495048 C986.99888,30.1923723 989.437602,27.7622804 991.261958,26.4821426 C993.38717,24.9914864 995.513447,23.5001386 997.638659,22.0094823 C997.348052,23.9424191 997.059202,25.8757293 996.767903,27.8076011 C996.34219,30.6352788 995.409713,33.808708 995.512591,36.6716333 C995.607895,39.3153944 997.839685,40.4975159 999.787615,41.8533789 Z M1001.60784,18.6627131 C1000.87353,23.8059604 1000.15258,28.9511297 999.426359,34.0951789 C999.121765,36.2537123 999.537206,36.9983519 1001.17086,38.4508087 C1002.07203,39.25096 1003.21724,39.8790035 1004.20289,40.5667614 C1006.22271,41.9773781 1008.2443,43.3883682 1010.26519,44.7982933 C1011.64411,45.760579 1010.55118,47.8102947 1009.15668,47.9361426 C1005.99041,48.2223895 1002.82169,48.5071981 999.654729,48.79238 C998.467903,48.8999491 997.27932,49.0071447 996.091803,49.1136488 C994.826348,49.2283716 992.467684,48.9886381 991.340293,49.5421133 C989.313344,50.5359316 988.484037,55.23214 987.675358,57.3092295 C986.479577,60.3826303 985.283423,63.4577877 984.087643,66.5311885 C983.620234,67.732574 981.607011,67.8499131 981.011544,66.6998275 C978.168464,61.2074238 976.088798,55.466047 974.828781,49.4270652 C969.719221,49.6096028 964.743334,50.4199754 959.839702,51.9571179 C958.496239,52.3783783 956.811432,50.7865356 957.704496,49.4525638 C961.420307,43.8947538 966.431796,39.6606484 971.714145,35.6594447 C970.248785,29.0361428 970.607119,22.2111547 969.276971,15.5908903 C968.997171,14.1994703 970.388966,13.2744309 971.549579,14.115041 C974.079257,15.9470513 976.515525,17.8730326 978.842811,19.9576035 C979.685711,20.7123225 980.515403,21.4816752 981.329757,22.2670447 C982.248566,23.1526426 983.344691,24.8148806 984.446153,25.4198559 C986.10814,26.333072 986.996143,25.3899896 988.472579,24.3388227 C989.427866,23.6578887 990.385229,22.9801496 991.341208,22.3002805 C993.892579,20.4889652 996.442193,18.6772765 998.992872,16.8648962 C1000.28278,15.9484914 1001.80554,17.2791576 1001.60784,18.6627131 Z" id="shape-03"></path>
                </g>
            </g>
        </g>
    </g>
</svg>